<?xml version="1.0" encoding="utf-8"?>
<!-- Generator: Adobe Illustrator 24.1.3, SVG Export Plug-In . SVG Version: 6.00 Build 0)  -->
<svg version="1.1" id="Layer_1" xmlns="http://www.w3.org/2000/svg" xmlns:xlink="http://www.w3.org/1999/xlink" x="0px" y="0px"
	 viewBox="0 0 350 189" style="enable-background:new 0 0 350 189;" xml:space="preserve">
<style type="text/css">
	.st0{opacity:0.7;fill:#CCCCCC;}
</style>
<path class="st0" d="M212,103.8c6.4-14.8,9.8-31.4,10-47.9c0-0.5,0-1.1,0-1.6c-0.1-15.9-3.1-32-8.8-46.7l-0.4,0.2
	c5.9,15.2,8.9,31.8,8.8,48.2c-0.1,16.5-3.6,33-9.9,47.8c-7.6,17.6-19.2,31.4-32.6,39c-1.1-1-2.2-2-3.3-3c13-8.4,23.9-22.5,30.9-40.5
	c5.8-14.9,8.6-30.9,8.6-46.8c-0.1-17-3.5-34-10.2-49.7l-0.4,0.2c13,30.3,13.6,65.4,1.7,96.1c-7,18-17.9,32.1-30.9,40.4
	c-10.7-9.6-22.1-18.5-35.7-23c-7.2-2.4-15-3.4-22.6-3c-1.3,0-2.6,0-3.9,0.1c-1.3,0-2.6,0-3.9,0.1c-1.3,0-2.6,0-3.9,0.1
	c-1.3,0-2.6,0-3.9,0c-1.3,0-2.7,0-4,0c-1.3,0-2.6,0-3.9,0c-1.3,0-2.7-0.1-4,0c0,0,0,0-0.1,0c-1,0-2-0.1-3,0c-0.3,0-0.6,0-0.9,0
	c-0.7,0-1.5-0.1-2.2-0.1c-0.6,0-1.2,0-1.9,0c-0.4,0-0.8,0-1.2-0.1c-1,0-1.9,0-2.9,0c-0.1,0-0.1,0-0.2,0c-1.3-0.1-2.7-0.1-4-0.1
	c-1.4-0.1-2.8-0.2-4.2-0.2c-1.2-0.1-2.3-0.2-3.5-0.2c-0.2,0-0.5,0-0.7,0c-0.7-0.1-1.4-0.2-2.1-0.2c-0.7-0.1-1.5-0.1-2.2-0.1
	c-0.2,0-0.4-0.1-0.6-0.1c-1.2-0.2-2.4-0.3-3.6-0.4c-1.4-0.2-2.8-0.4-4.2-0.6c-8.6-1.7-17.7-1.7-25.7,0.2c-9.7,2.3-17.5,7.1-22.8,14
	l0.4,0.3c5.2-6.8,13-11.6,22.5-13.8c6.5-1.5,13.7-1.9,20.8-1c-5.5-0.2-11,0.3-16.4,1.5C19.6,115,9.9,120,3.4,126.8l0.3,0.3
	c6.4-6.7,16-11.7,27-14.1c6.8-1.5,13.8-1.9,20.6-1.2c-6.2,0-12.6,0.8-19,2.3c-11.1,2.7-21.7,7.8-29,13.8l0.3,0.3
	c7.3-6,17.8-11,28.8-13.8c7.1-1.8,14.4-2.5,21.2-2.3c0.1,0,0.2,0,0.2,0.1c0.1,0,0.2,0.1,0.3,0.1c-6.4,0.2-13.1,1.3-20.1,3.3
	c-11,3-22.2,7.9-30.7,13.5l0.2,0.3c8.5-5.5,19.6-10.4,30.6-13.4c7.5-2.1,14.7-3.2,21.4-3.3c0.3,0.1,0.7,0.2,1,0.3
	c-6.4,0.5-13.3,1.9-20.8,4.2c-13.6,4.1-26.2,10-32.5,13.1l0.2,0.3c6.3-3.1,18.8-9,32.4-13.1c7.9-2.4,15.1-3.8,21.7-4.3
	c0.4,0.1,0.8,0.2,1.2,0.3c-6.4,0.8-13.3,2.5-21.3,5.1c-8.1,2.7-16.6,5.9-24,8.8c-3.7,1.4-7.1,2.8-10.3,3.9l0.1,0.3
	c3.2-1.2,6.6-2.5,10.3-4c7.4-2.9,15.8-6.2,24-8.8c8.3-2.7,15.4-4.4,22-5.2c0.4,0.1,0.9,0.3,1.3,0.4c-7.7,1.3-15.1,3.7-21.7,6
	c-4,1.4-8.1,2.9-12.1,4.4c-8.7,3.2-16.9,6.2-23.9,8.1l0.1,0.3c7-1.8,15.2-4.9,23.9-8.1c4-1.5,8.1-3,12.1-4.4
	c6.7-2.4,14.3-4.8,22.3-6.1c0.5,0.2,0.9,0.3,1.4,0.5c-7.8,1.7-15.3,4.3-22,6.8c-1.6,0.6-3.3,1.2-5,1.9C24.6,128,12.8,132.4,3.2,134
	l0.1,0.3c9.6-1.6,21.4-6,32.9-10.3c1.7-0.6,3.3-1.2,5-1.9c6.9-2.6,14.5-5.3,22.5-6.9c0.5,0.2,1,0.4,1.4,0.5
	c-7.3,1.8-14.6,4.6-22.3,7.6c-13,5.1-27.8,10.9-39.5,11.8l0,0.3c11.8-0.9,26.6-6.7,39.6-11.8c7.9-3.1,15.3-5.9,22.7-7.7
	c0.5,0.2,1,0.4,1.6,0.6c-7.6,2.2-15.1,5.3-22.4,8.3l-0.3,0.1c-25.7,10.5-34.8,11.4-41.3,11.4l0,0.3c5.6,0,12.2-1.2,20.2-3.6
	c7.1-2.2,14.4-5.1,21.2-7.8l0.3-0.1c7.4-3.1,15-6.2,22.7-8.4c0.5,0.2,1.1,0.4,1.6,0.6c-7,2.2-13.8,5.2-20.6,8.1l-2.3,1
	c-24.9,10.7-35.8,11.6-43.1,11.1l0,0.3c6,0.4,12.9-0.6,21.2-2.9c7.9-2.3,15.9-5.6,22-8.2l2.3-1c6.8-2.9,13.7-5.9,20.8-8.2
	c0.5,0.2,1.1,0.5,1.6,0.7c-6.5,2.3-12.8,5.2-19.1,8c-1.4,0.6-2.7,1.2-4.1,1.8c-13.4,6-30.6,12.6-44.9,10.7l0,0.2
	c6.3,0.8,13.6,0.1,22.2-2.3c6.5-1.8,13.8-4.5,22.8-8.5c1.4-0.6,2.7-1.2,4.1-1.8c6.3-2.8,12.7-5.7,19.3-8c0.5,0.2,1.1,0.5,1.6,0.7
	c-6,2.3-12,5.1-17.8,7.9c-1.8,0.9-3.7,1.8-5.6,2.6C23.2,141.8,10.4,141.4,3,140l0,0.2c6.7,1.2,14.3,0.7,23.2-1.6
	c6.9-1.8,14.4-4.6,23.6-8.8c1.9-0.9,3.8-1.8,5.6-2.6c5.9-2.8,11.9-5.6,18-7.9c0.6,0.3,1.1,0.5,1.7,0.8c-5.7,2.3-11.2,5.1-16.7,7.7
	c-2.3,1.1-4.6,2.3-6.9,3.4c-13,6.2-32.1,13.9-48.4,10.1l0,0.2c16.4,3.9,35.6-3.9,48.5-10.1c2.3-1.1,4.6-2.2,6.9-3.4
	c5.5-2.7,11.1-5.5,16.8-7.8c0.6,0.3,1.1,0.5,1.7,0.8c-5.3,2.4-10.6,5-15.7,7.6c-2.6,1.4-5.4,2.7-8.1,4.1c-9.4,4.6-17.6,7.7-25.1,9.5
	c-9.4,2.2-17.9,2.3-25.1,0.3l0,0.2c7.3,2,15.7,2,25.2-0.3c7.5-1.8,15.7-4.9,25.1-9.5c2.7-1.3,5.4-2.7,8.1-4.1
	c5.2-2.6,10.5-5.3,15.8-7.7c0.6,0.3,1.2,0.6,1.7,0.9c-5,2.3-10,5-14.8,7.5c-3,1.6-6.1,3.2-9.2,4.8c-21.3,10.7-38.3,13.8-52,9.4
	l0,0.1c13.7,4.4,30.7,1.4,52.1-9.4c3.1-1.5,6.2-3.2,9.2-4.8c4.9-2.6,9.9-5.2,14.9-7.6c0.6,0.3,1.2,0.6,1.7,0.9
	c-4.8,2.3-9.4,4.9-14,7.4c-3.3,1.8-6.8,3.7-10.2,5.5c-9.8,5.1-18.5,8.4-26.7,10.1c-10.1,2.2-19.2,1.8-27.1-1.1l0,0.1
	c7.9,2.9,17.1,3.2,27.2,1.1c8.2-1.7,16.9-5.1,26.7-10.1c3.4-1.8,6.8-3.6,10.2-5.5c4.6-2.5,9.3-5.1,14.1-7.5c0.6,0.3,1.2,0.6,1.8,0.9
	c-4.5,2.3-8.9,4.8-13.3,7.3c-3.6,2-7.4,4.2-11.1,6.1c-10,5.3-19,8.7-27.4,10.4c-10.4,2.1-19.9,1.6-28.1-1.7l0,0.1
	c8.2,3.3,17.7,3.9,28.2,1.7c8.5-1.7,17.5-5.2,27.5-10.5c3.7-2,7.5-4.1,11.1-6.1c4.4-2.5,8.8-5,13.4-7.3c3.3,1.7,6.6,3.5,9.8,5.3
	c3.7,2,7.5,4.1,11.2,6.1c7,3.6,15.7,7.7,25.3,10.3c2.3,0.8,4.6,1.5,6.9,2.1c1.8,0.6,3.6,1.2,5.4,1.7c2.3,0.8,4.6,1.5,6.8,2.1
	c1.8,0.6,3.6,1.2,5.4,1.7c2.1,0.7,4.1,1.4,6.1,1.9c2.1,0.8,4.2,1.4,6.3,2c2,0.7,3.9,1.3,5.9,1.9c2.1,0.8,4.2,1.5,6.3,2.1
	c2.1,0.8,4.1,1.5,6.2,2.1c2.1,0.8,4.2,1.5,6.2,2.1c2.1,0.8,4.2,1.5,6.3,2.2c2.1,0.8,4.3,1.6,6.4,2.2c2.1,0.8,4.2,1.6,6.3,2.3
	c2.1,0.9,4.2,1.6,6.3,2.3c2.2,0.9,4.4,1.7,6.5,2.5c2.2,0.9,4.3,1.8,6.5,2.5c4.9,2.2,9.8,3.9,14.7,5.2c9.3,2.5,19,3.4,28.1,2.6
	c9.8-0.8,18.8-3.5,26.8-8c7.4-4.2,14.1-10.1,20-17.5c5.3-6.7,9.8-14.5,13.4-23.3c6.8-16.6,9.8-34.6,12.7-52l-0.1,0
	c-2.9,17.4-5.9,35.4-12.7,52c-3.6,8.7-8.1,16.6-13.4,23.3c-5.8,7.4-12.6,13.3-19.9,17.4c-7.9,4.5-16.9,7.2-26.7,8
	c-9.1,0.8-18.8-0.1-28.1-2.6c-4.4-1.2-8.9-2.8-13.4-4.7c0.5,0.2,1,0.3,1.5,0.5c2.4,0.8,4.8,1.4,7.2,2c19.2,4.4,39,1.5,54.1-7.8
	c7.1-4.4,13.6-10.4,19.2-17.9c5.1-6.8,9.4-14.7,12.7-23.4c6.2-16,8.8-32.9,11.4-51.8l-0.1,0c-2.6,18.8-5.2,35.7-11.4,51.7
	c-3.3,8.7-7.6,16.5-12.7,23.3c-5.6,7.4-12,13.4-19.1,17.8c-15.1,9.3-34.8,12.1-54,7.8c-2.4-0.5-4.8-1.2-7.2-2c-1-0.3-2-0.7-3-1
	c-0.8-0.4-1.6-0.7-2.4-1.1c0.2,0.1,0.5,0.1,0.7,0.2c2.4,0.7,4.9,1.2,7.3,1.7c19,3.6,38.4-0.2,53.3-10.2c6.9-4.6,13.1-10.8,18.4-18.3
	c4.9-6.9,8.9-14.8,12.1-23.4c6-16.6,8.2-34.6,10-51.5l-0.2,0c-1.8,17-4.1,34.9-10,51.5c-3.1,8.6-7.2,16.5-12,23.4
	c-5.3,7.5-11.5,13.6-18.3,18.2c-14.9,10-34.3,13.7-53.2,10.2c-2.4-0.5-4.9-1-7.3-1.7c-0.6-0.2-1.1-0.3-1.7-0.5
	c-0.9-0.4-1.7-0.9-2.6-1.3c2.3,0.5,4.6,1,6.9,1.3c18.7,2.8,37.9-1.8,52.6-12.6c6.6-4.8,12.5-11.1,17.6-18.6
	c4.7-7,8.5-14.9,11.4-23.5c5.8-17.2,7.5-35.5,8.7-51.3l-0.2,0c-1.2,15.8-2.9,34-8.7,51.3c-2.9,8.6-6.7,16.5-11.4,23.4
	c-5,7.5-10.9,13.8-17.5,18.6c-14.7,10.7-33.8,15.3-52.4,12.5c-2.4-0.4-4.9-0.8-7.3-1.4c-0.1,0-0.1,0-0.2-0.1c-0.9-0.5-1.8-1-2.7-1.5
	c1.9,0.3,3.7,0.6,5.6,0.8c18.4,2,37.3-3.4,51.8-14.9c6.4-5.1,12-11.5,16.8-19c4.5-7.1,8.1-15,10.7-23.5c5.3-17,6.7-35.4,7.3-51.1
	l-0.2,0c-0.7,15.7-2.1,34-7.3,51c-2.6,8.5-6.2,16.4-10.7,23.5c-4.8,7.5-10.4,13.9-16.7,19c-14.4,11.5-33.2,16.9-51.6,14.9
	c-2-0.2-4.1-0.5-6.2-0.9c-0.4-0.2-0.8-0.4-1.2-0.7c-0.5-0.3-1.1-0.6-1.6-1c1.4,0.2,2.9,0.3,4.3,0.4c9.2,0.6,18.3-0.6,27.2-3.6
	c8.7-3,16.7-7.6,23.8-13.7c11.8-10.2,21.1-25.5,26.1-43c5-17.7,5.8-36.5,6-50.8l-0.2,0c-0.2,14.4-1,33.1-6,50.8
	c-5,17.5-14.2,32.7-26,42.9c-7,6.1-15,10.7-23.7,13.7c-8.8,3-18,4.2-27.1,3.6c-1.6-0.1-3.2-0.3-4.8-0.5c-0.9-0.6-1.9-1.2-2.8-1.8
	c1,0.1,2,0.1,3,0.2c9.2,0.3,18.3-1.3,27-4.8c8.5-3.4,16.3-8.4,23.2-14.9c11.4-10.7,20.1-26.1,24.6-43.5c2.1-8.2,4.8-21.6,4.7-45.1
	c0-1.8,0-3.6-0.1-5.5l-0.2,0c0.3,12.9,0.1,32.2-4.6,50.5c-4.5,17.3-13.2,32.7-24.5,43.4c-6.8,6.4-14.6,11.4-23.1,14.8
	c-8.7,3.5-17.8,5.1-26.9,4.8c-1.1,0-2.3-0.1-3.4-0.2c-1-0.6-1.9-1.2-2.9-1.9c0.5,0,1.1,0,1.6,0c9.1-0.1,18.2-2.1,26.9-6.1
	c8.3-3.8,15.9-9.2,22.6-16c10.9-11.2,19.1-26.8,23.1-43.9c2.6-11,3.8-23,3.7-36.9c0-4.3-0.2-8.8-0.4-13.5l-0.3,0
	c1.1,19.9,0.1,35.9-3.3,50.3c-4,17.1-12.2,32.7-23.1,43.8c-6.6,6.8-14.2,12.2-22.5,16c-8.6,4-17.6,6-26.8,6.1c-0.7,0-1.4,0-2,0
	c-1-0.7-1.9-1.3-2.9-2c0.1,0,0.2,0,0.3,0c17.9-0.8,35.2-9.5,48.7-24.5c10.4-11.6,18.1-27.4,21.7-44.4c2-9.5,3-19.8,2.9-31.2
	c0-6-0.3-12.3-0.9-19l-0.3,0c1.7,19.1,1.1,35.5-2,50.1c-3.5,17-11.2,32.7-21.6,44.2c-13.4,14.9-30.6,23.6-48.5,24.4
	c-0.2,0-0.4,0-0.7,0c-1-0.7-1.9-1.4-2.9-2.2c17.4-1.7,34-11.2,46.9-26.8C260,124.6,267,109.1,270.1,92c1.5-8.3,2.3-17,2.2-26.4
	c0-7.5-0.6-15.3-1.6-23.6l-0.3,0c2.3,18.6,2.1,34.9-0.6,49.8c-3.1,17.1-10.1,32.5-20.1,44.7c-12.9,15.6-29.5,25.1-47,26.7
	c-1-0.7-2-1.5-2.9-2.3c16.8-2.7,32.6-12.9,44.7-28.9c9.6-12.6,16-28.3,18.7-45.3c1.1-7,1.7-14.5,1.6-22.2c0-8.8-0.8-18-2.4-27.5
	l-0.3,0.1c2.9,17.9,3.1,34.6,0.7,49.6c-2.7,16.9-9.2,32.5-18.7,45.1c-12.1,16-28,26.2-44.8,28.8c-1-0.8-2-1.6-3-2.4
	c16.2-3.6,31.3-14.5,42.6-30.9c9.1-13.1,15-28.9,17.3-45.7c0.8-5.9,1.2-12.1,1.1-18.4c0-10-1.1-20.4-3.2-31.1l-0.3,0.1
	c3.4,17.4,4.1,34,2.1,49.4c-2.2,16.8-8.2,32.6-17.2,45.6c-11.4,16.4-26.4,27.3-42.7,30.9c-0.4-0.3-0.8-0.7-1.2-1
	c-0.6-0.5-1.2-1-1.8-1.5c15.6-4.5,29.9-16,40.5-32.8c8.5-13.5,14-29.4,15.8-46.2c0.5-4.9,0.8-9.8,0.8-14.9
	c-0.1-11.1-1.5-22.6-4.2-34.3l-0.3,0.1c4,17,5.1,33.5,3.4,49.1c-1.8,16.7-7.3,32.6-15.8,46c-10.6,16.8-24.9,28.2-40.5,32.7
	c-1-0.9-2-1.8-3-2.7c15-5.4,28.7-17.7,38.5-34.6c8-13.8,13-29.9,14.4-46.6c0.3-3.8,0.5-7.7,0.4-11.5c-0.1-12.3-1.8-24.8-5.2-37.5
	l-0.4,0.1c4.5,16.6,6.1,33,4.8,48.9c-1.4,16.6-6.3,32.7-14.3,46.5c-9.7,16.8-23.5,29.1-38.5,34.5c-1-0.9-2.1-1.9-3.1-2.8
	c14.4-6.2,27.4-19.1,36.5-36.2c7.5-14.2,11.9-30.5,12.9-47.1c0.2-2.6,0.2-5.3,0.2-8c-0.1-13.5-2.2-27.4-6.3-40.8l-0.4,0.1
	c4.9,15.9,7,32.7,6.1,48.6c-1,16.5-5.4,32.8-12.8,46.9c-9,17.1-22,29.9-36.4,36.1c-1.1-1-2.1-1.9-3.1-2.9
	c13.9-7,26.2-20.3,34.5-37.7c6.9-14.5,10.9-30.9,11.4-47.5c0.1-1.6,0.1-3.2,0.1-4.8c-0.1-14.7-2.7-29.7-7.6-43.7l-0.4,0.1
	c5.4,15.5,8,32.3,7.5,48.4c-0.5,16.5-4.5,32.9-11.4,47.3c-8.3,17.4-20.6,30.6-34.5,37.6c-1.1-1-2.1-2-3.2-3
	C192.8,135.2,204.4,121.5,212,103.8z M178.9,142.7c-0.8,0.5-1.7,0.9-2.5,1.3c-1.1-1-2.1-1.9-3.2-2.9c0.8-0.5,1.6-1,2.4-1.5
	C176.7,140.7,177.8,141.7,178.9,142.7z M215.4,173.3c-0.9-0.2-1.7-0.4-2.6-0.7c-0.8-0.4-1.6-0.8-2.4-1.2c0.8,0.2,1.7,0.3,2.5,0.5
	C213.7,172.4,214.5,172.9,215.4,173.3z M216,173.7c0.8,0.4,1.5,0.8,2.3,1.1c-0.8-0.2-1.6-0.5-2.4-0.8c-0.7-0.3-1.4-0.6-2.2-0.9
	C214.5,173.3,215.3,173.5,216,173.7z M76.2,118.2c0.6-0.2,1.1-0.4,1.7-0.6c0.5,0.2,1.1,0.4,1.6,0.7c-0.6,0.2-1.2,0.4-1.7,0.6
	c-0.5-0.2-0.9-0.4-1.4-0.6C76.4,118.3,76.3,118.2,76.2,118.2z M61.6,113.1c0.2,0,0.3,0,0.5,0c0.2,0,0.4,0.1,0.6,0.1
	c-0.2,0-0.4,0-0.5,0C62,113.3,61.9,113.2,61.6,113.1C61.7,113.2,61.7,113.1,61.6,113.1z M200,167.1c-0.9-0.5-1.7-0.9-2.6-1.4
	c0.6,0.1,1.1,0.1,1.7,0.1c0.3,0,0.7,0,1,0.1c0.9,0.6,1.8,1.1,2.7,1.6C201.8,167.4,200.9,167.3,200,167.1z M203.2,167.8
	c0.9,0.5,1.7,1,2.6,1.5c-0.9-0.2-1.8-0.3-2.6-0.5c-0.8-0.4-1.7-0.8-2.5-1.3C201.5,167.6,202.4,167.7,203.2,167.8z M80.4,118.2
	c0.6-0.2,1.1-0.4,1.7-0.6c0.5,0.2,1.1,0.4,1.6,0.6c-0.6,0.2-1.1,0.4-1.7,0.7C81.5,118.6,80.9,118.4,80.4,118.2
	C80.4,118.2,80.4,118.2,80.4,118.2z M97.7,113.8c-0.1,0-0.2,0-0.4,0c-0.2,0-0.3,0-0.5,0c0.1,0,0.1,0,0.2,0
	C97.3,113.8,97.5,113.8,97.7,113.8z M174,149.3c-0.9,0.3-1.8,0.5-2.7,0.7c-0.9-0.8-1.9-1.5-2.8-2.3c0.4-0.1,0.7-0.2,1.1-0.4
	c0.5-0.2,1-0.3,1.5-0.5C172.1,147.7,173.1,148.5,174,149.3z M190.5,161.7c0.9,0.6,1.8,1.1,2.7,1.7c-0.9-0.1-1.8-0.1-2.7-0.2
	c-0.9-0.5-1.7-1-2.6-1.5c0.6,0,1.2,0,1.8,0.1C189.9,161.7,190.2,161.7,190.5,161.7z M189.6,161.4c-0.8,0-1.6,0-2.3-0.1
	c-0.9-0.5-1.8-1.1-2.7-1.7c0.1,0,0.2,0,0.3,0c0.8,0,1.6,0,2.4-0.1c0.9,0.6,1.8,1.2,2.7,1.8C189.9,161.4,189.8,161.4,189.6,161.4z
	 M75.6,113.9c-0.2,0-0.4,0-0.6,0.1c-0.2,0-0.5-0.1-0.7-0.1c0.2,0,0.4,0,0.6,0C75.1,113.8,75.3,113.8,75.6,113.9z M180.2,157.6
	c0.3,0,0.6,0,0.8-0.1c0.9,0.6,1.8,1.2,2.7,1.8c-0.9,0-1.8,0-2.7-0.1c-0.9-0.5-1.7-1.1-2.6-1.6C179.1,157.7,179.7,157.7,180.2,157.6z
	 M180.2,157.3c-0.8,0-1.5,0.1-2.3,0.1c-0.9-0.6-1.8-1.1-2.7-1.7c0.1,0,0.2,0,0.3,0c0.8-0.1,1.6-0.1,2.4-0.2c0.9,0.7,1.8,1.3,2.7,1.9
	C180.5,157.3,180.4,157.3,180.2,157.3z M174.9,157.3c-0.8-0.5-1.7-1-2.5-1.5c0.9,0,1.7-0.1,2.6-0.1c0.9,0.6,1.7,1.2,2.6,1.7
	C176.7,157.3,175.8,157.3,174.9,157.3z M168.8,155.3c-0.8-0.5-1.7-1-2.5-1.5c0.8,0,1.7-0.1,2.5-0.1c0.9,0.6,1.7,1.1,2.5,1.7
	C170.5,155.3,169.6,155.3,168.8,155.3z M162.7,153.4c-0.8-0.5-1.6-1-2.5-1.5c0.8,0,1.6-0.1,2.5-0.1c0.8,0.6,1.7,1.1,2.5,1.6
	C164.4,153.4,163.5,153.4,162.7,153.4z M156.6,151.5c-0.8-0.4-1.6-0.9-2.4-1.4c0.8,0,1.6-0.1,2.4-0.1c0.8,0.5,1.6,1,2.4,1.5
	C158.2,151.5,157.4,151.5,156.6,151.5z M150.5,149.6c-0.8-0.4-1.6-0.9-2.4-1.4c0.8,0,1.6,0,2.4-0.1c0.8,0.5,1.6,1,2.4,1.5
	C152.1,149.6,151.3,149.6,150.5,149.6z M82.3,114.5c0.2,0,0.4-0.1,0.6-0.1c0.4,0.1,0.9,0.1,1.3,0.2c-0.4,0.1-0.8,0.2-1.3,0.2
	c-0.4-0.1-0.8-0.2-1.3-0.3C81.9,114.5,82.1,114.5,82.3,114.5z M88,114.9c0.3-0.1,0.7-0.1,1-0.2c0.5,0.1,1,0.2,1.4,0.3
	c-0.5,0.1-0.9,0.2-1.4,0.3c-0.5-0.1-1-0.2-1.4-0.3C87.7,115,87.9,114.9,88,114.9z M93.6,115.3c0.4-0.1,0.8-0.2,1.3-0.3
	c0.5,0.1,1,0.2,1.5,0.3c0,0,0,0,0,0c-0.5,0.1-1,0.3-1.5,0.4c-0.5-0.1-1-0.3-1.5-0.4C93.5,115.4,93.6,115.4,93.6,115.3z M168.1,150.7
	c-0.7,0.1-1.3,0.2-2,0.3c-0.2,0-0.4,0.1-0.7,0.1c-0.9-0.6-1.8-1.3-2.6-1.9c0,0,0,0-0.1,0c0.9-0.2,1.7-0.3,2.6-0.6
	C166.3,149.3,167.2,150,168.1,150.7C168.1,150.7,168.1,150.7,168.1,150.7z M170.8,153.1c-0.7,0.1-1.5,0.1-2.2,0.2
	c-0.9-0.6-1.8-1.2-2.6-1.8c0.1,0,0.1,0,0.2,0c0.8-0.1,1.6-0.2,2.4-0.4c0.9,0.7,1.8,1.3,2.7,2C171.1,153.1,171,153.1,170.8,153.1z
	 M161.5,149.4c0.3-0.1,0.6-0.1,1-0.2c0.1,0.1,0.2,0.1,0.2,0.2c0.8,0.6,1.6,1.2,2.4,1.8c-0.9,0.1-1.7,0.2-2.6,0.2
	c-0.9-0.6-1.7-1.2-2.6-1.8C160.4,149.6,161,149.5,161.5,149.4z M162.3,148.8c-0.9-0.7-1.8-1.4-2.7-2.1c0.9-0.2,1.7-0.5,2.6-0.7
	c0.9,0.8,1.9,1.5,2.8,2.2C164.1,148.5,163.2,148.7,162.3,148.8z M162,148.9c-0.2,0-0.4,0.1-0.6,0.1c-0.7,0.1-1.4,0.2-2.1,0.3
	c-0.6-0.4-1.3-0.9-1.9-1.3c-0.3-0.2-0.5-0.4-0.8-0.6c0,0,0,0,0.1,0c0.8-0.2,1.7-0.3,2.5-0.5C160.2,147.5,161.1,148.2,162,148.9z
	 M90.6,116.1c0.5,0.2,1.1,0.3,1.6,0.5c-0.5,0.2-1.1,0.4-1.6,0.5c-0.5-0.2-1-0.4-1.6-0.6C89.5,116.4,90.1,116.3,90.6,116.1z
	 M88.7,116.5c-0.5-0.2-1-0.3-1.5-0.5c0.5-0.1,1-0.3,1.5-0.4c0.5,0.1,1,0.3,1.6,0.4C89.8,116.2,89.2,116.3,88.7,116.5z M92.5,116.7
	c0.5,0.2,1.1,0.4,1.6,0.6c-0.6,0.2-1.1,0.4-1.7,0.6c-0.1,0-0.1,0-0.2-0.1c-0.5-0.2-1-0.4-1.4-0.5C91.4,117.1,91.9,116.9,92.5,116.7z
	 M93,116.5c0.5-0.2,1.1-0.3,1.6-0.5c0.5,0.2,1.1,0.3,1.6,0.5c-0.6,0.2-1.1,0.4-1.7,0.5C94.1,116.9,93.5,116.7,93,116.5z M95.2,115.9
	c0.4-0.1,0.8-0.2,1.2-0.3c0.1,0,0.2,0,0.3-0.1c0.5,0.1,1.1,0.3,1.6,0.4c-0.5,0.2-1.1,0.3-1.6,0.5C96.3,116.2,95.7,116,95.2,115.9z
	 M96.5,116.6c0.5,0.2,1.1,0.4,1.6,0.5c-0.6,0.2-1.1,0.4-1.7,0.6c-0.1,0-0.2-0.1-0.2-0.1c-0.5-0.2-0.9-0.3-1.4-0.5
	C95.4,117,95.9,116.8,96.5,116.6z M97,116.4c0.5-0.2,1.1-0.3,1.6-0.5c0.5,0.2,1.1,0.3,1.6,0.5c-0.6,0.2-1.1,0.4-1.7,0.5
	C98.1,116.8,97.5,116.6,97,116.4z M99.2,115.8c0,0,0.1,0,0.1,0c0.5-0.1,0.9-0.2,1.4-0.4c0.5,0.1,1.1,0.3,1.6,0.4
	c-0.5,0.2-1.1,0.3-1.6,0.5C100.2,116.1,99.7,116,99.2,115.8z M102.6,115.9c1.8,0.5,3.6,1,5.4,1.7c11.8,4.3,21.9,12.3,31.7,20
	c4,3.1,8.1,6.4,12.3,9.3c0.3,0.2,0.6,0.4,0.9,0.6c-0.8,0.1-1.6,0.2-2.5,0.2c-1.2-0.8-2.4-1.6-3.6-2.4c-4.1-2.8-8.2-6-12.2-9
	c-9.5-7.2-19.2-14.7-30.5-18.9c-1-0.4-2.1-0.7-3.1-1.1C101.5,116.2,102,116,102.6,115.9z M152.2,146.6c-4.2-2.9-8.3-6.2-12.3-9.3
	c-9.8-7.7-20-15.7-31.8-20c-1.6-0.6-3.3-1.1-4.9-1.6c0.5-0.1,1-0.3,1.6-0.4c2.4,0.6,4.9,1.3,7.2,2.1c12.4,4.5,22.9,12.9,33.1,21.1
	c3.6,2.9,7.2,5.8,10.9,8.5c-0.8,0.1-1.7,0.3-2.6,0.4C152.9,147.2,152.5,146.9,152.2,146.6z M156.4,147.4c0.3,0.2,0.6,0.5,1,0.7
	c0.5,0.4,1.1,0.8,1.6,1.2c-0.8,0.1-1.7,0.2-2.6,0.2c-0.9-0.6-1.7-1.1-2.6-1.7C154.7,147.7,155.5,147.6,156.4,147.4z M156.7,146.9
	c-0.2,0-0.3,0.1-0.5,0.1c-3.8-2.8-7.5-5.8-11.1-8.7c-10.2-8.2-20.7-16.6-33.1-21.1c-2.2-0.8-4.5-1.5-6.8-2c0.5-0.1,1-0.2,1.5-0.4
	c3.1,0.6,6.2,1.4,9.1,2.5c13,4.6,23.9,13.6,34.4,22.2c2.8,2.3,5.7,4.7,8.6,6.9C158.1,146.6,157.4,146.8,156.7,146.9z M105,115.1
	c-0.5-0.1-1-0.2-1.5-0.3c0.5-0.1,1-0.2,1.4-0.3c0.5,0.1,1.1,0.2,1.6,0.3C105.9,114.9,105.5,115,105,115.1z M104.4,115.2
	c-0.5,0.1-1,0.3-1.5,0.4c-0.5-0.1-1-0.3-1.6-0.4c0.5-0.1,1-0.2,1.5-0.3C103.3,115,103.9,115.1,104.4,115.2z M101,115.2
	c-0.5-0.1-1-0.2-1.5-0.3c0.5-0.1,0.9-0.2,1.4-0.3c0.5,0.1,1,0.2,1.6,0.3C102,115,101.5,115.1,101,115.2z M100.4,115.3
	c-0.4,0.1-0.8,0.2-1.2,0.3c-0.1,0-0.2,0.1-0.3,0.1c-0.5-0.1-1-0.3-1.5-0.4c0.5-0.1,1-0.2,1.4-0.3C99.4,115.1,99.9,115.2,100.4,115.3
	z M97.1,115.2c-0.5-0.1-1-0.2-1.5-0.3c0.5-0.1,0.9-0.2,1.4-0.3c0.5,0.1,1,0.2,1.5,0.3C98,115,97.5,115.1,97.1,115.2z M94.3,116
	c-0.5,0.2-1.1,0.3-1.6,0.5c-0.5-0.2-1-0.3-1.5-0.5c0.5-0.1,1-0.3,1.6-0.4C93.3,115.7,93.8,115.8,94.3,116z M90.9,115.9
	c-0.5-0.1-1-0.3-1.5-0.4c0.5-0.1,0.9-0.2,1.4-0.3c0,0,0,0,0.1,0c0.5,0.1,1,0.2,1.5,0.4C91.9,115.6,91.4,115.7,90.9,115.9z
	 M88.3,115.5c-0.5,0.1-1,0.3-1.5,0.4c-0.5-0.1-1-0.3-1.4-0.4c0.5-0.1,1-0.2,1.5-0.3C87.3,115.3,87.8,115.4,88.3,115.5z M85,115.4
	c-0.5-0.1-0.9-0.2-1.4-0.4c0.4-0.1,0.9-0.2,1.3-0.3c0.5,0.1,1,0.2,1.4,0.3C85.9,115.1,85.4,115.2,85,115.4z M82.2,115
	c-0.5,0.1-0.9,0.2-1.4,0.3c-0.4-0.1-0.9-0.3-1.3-0.4c0.4-0.1,0.9-0.2,1.3-0.2C81.3,114.8,81.7,114.9,82.2,115z M82.7,115.2
	c0.5,0.1,1,0.2,1.5,0.4c-0.5,0.1-1,0.3-1.5,0.4c-0.5-0.2-1-0.3-1.4-0.4C81.8,115.4,82.3,115.3,82.7,115.2z M84.7,115.6
	c0.5,0.1,1,0.3,1.5,0.4c-0.5,0.1-1,0.3-1.6,0.5c-0.5-0.2-1-0.3-1.5-0.5C83.6,115.9,84.2,115.8,84.7,115.6z M86.5,116.2
	c0.5,0.2,1.1,0.3,1.6,0.5c-0.5,0.2-1.1,0.3-1.6,0.5c-0.5-0.2-1-0.4-1.6-0.6C85.5,116.5,86,116.3,86.5,116.2z M88.4,116.8
	c0.5,0.2,1.1,0.4,1.6,0.6c-0.6,0.2-1.1,0.4-1.7,0.6c0,0,0,0-0.1,0c-0.5-0.2-1-0.4-1.5-0.6C87.3,117.1,87.9,117,88.4,116.8z
	 M90.3,117.4c0.5,0.2,1.1,0.4,1.6,0.6c-0.6,0.2-1.2,0.4-1.7,0.7c-0.5-0.2-1.1-0.5-1.6-0.7C89.1,117.8,89.7,117.6,90.3,117.4z
	 M92.1,118.1C92.1,118.1,92.1,118.1,92.1,118.1c0.6,0.2,1.1,0.4,1.6,0.7c-0.6,0.2-1.2,0.5-1.8,0.7c-0.5-0.3-1.1-0.5-1.6-0.7
	C90.9,118.6,91.5,118.3,92.1,118.1z M92.6,117.9c0.6-0.2,1.1-0.4,1.7-0.6c0.6,0.2,1.1,0.4,1.7,0.6c-0.6,0.2-1.2,0.4-1.7,0.7
	C93.7,118.4,93.1,118.2,92.6,117.9z M96.1,118c10.1,3.9,19.2,10.4,27.9,16.7c3.9,2.8,7.9,5.7,11.9,8.3c2.6,1.7,5.2,3.3,7.8,4.7
	c-0.7,0-1.5-0.1-2.2-0.2c-3.5-1.8-7.1-3.8-10.7-6.1c-4-2.5-7.9-5.3-11.8-7.9c-7.8-5.4-15.8-11-24.6-14.8
	C94.9,118.4,95.5,118.2,96.1,118z M136.1,142.7c-4-2.6-8.1-5.5-11.9-8.3c-8.6-6.2-17.6-12.6-27.6-16.6c0.6-0.2,1.1-0.4,1.7-0.6
	c0.6,0.2,1.1,0.4,1.7,0.6c10.7,4.1,20.1,11,29.2,17.8c3.9,2.9,8,5.9,12.1,8.7c1.9,1.2,3.7,2.4,5.5,3.5c-0.8,0-1.5,0-2.4-0.1
	C141.7,146.2,138.9,144.6,136.1,142.7z M141.5,144c-4.1-2.7-8.2-5.7-12.1-8.7c-9.1-6.8-18.5-13.8-29.3-17.8
	c-0.4-0.2-0.9-0.3-1.3-0.5c0.6-0.2,1.1-0.4,1.7-0.5c1.2,0.4,2.3,0.8,3.5,1.2c11.2,4.2,21,11.7,30.5,18.9c4,3,8.1,6.2,12.2,9
	c1.1,0.7,2.2,1.5,3.2,2.2c-0.8,0-1.6,0.1-2.4,0.1C145.5,146.6,143.5,145.4,141.5,144z M151,148.1c0.8-0.1,1.6-0.1,2.5-0.2
	c0.8,0.6,1.7,1.1,2.5,1.7c-0.8,0-1.7,0.1-2.5,0.1C152.7,149.1,151.8,148.6,151,148.1z M157.1,149.9c0.8-0.1,1.7-0.1,2.5-0.2
	c0.9,0.6,1.7,1.2,2.6,1.7c-0.8,0-1.7,0.1-2.5,0.1C158.7,151,157.9,150.5,157.1,149.9z M163.1,151.8c0.8-0.1,1.7-0.1,2.5-0.2
	c0.9,0.6,1.7,1.2,2.6,1.8c-0.9,0-1.7,0.1-2.6,0.1C164.8,152.9,164,152.3,163.1,151.8z M169.2,153.7c0.6,0,1.1-0.1,1.7-0.1
	c0.3,0,0.6-0.1,0.9-0.1c0.9,0.6,1.8,1.3,2.7,1.9c-0.9,0-1.8,0.1-2.6,0.1C170.9,154.8,170,154.2,169.2,153.7z M175.5,155.2
	c-0.3,0-0.5,0-0.8,0c-0.9-0.6-1.8-1.2-2.7-1.9c0.9-0.1,1.8-0.2,2.7-0.4c0.9,0.7,1.8,1.4,2.7,2C176.8,155.1,176.2,155.1,175.5,155.2z
	 M171.6,153c-0.9-0.7-1.8-1.3-2.7-2c0.9-0.2,1.8-0.4,2.6-0.6c0.6,0.5,1.3,1,1.9,1.5c0.3,0.2,0.6,0.4,0.9,0.7
	C173.4,152.8,172.5,152.9,171.6,153z M168.4,150.7c-0.1-0.1-0.1-0.1-0.2-0.2c-0.8-0.6-1.7-1.3-2.5-2c0.9-0.2,1.7-0.5,2.6-0.7
	c0.9,0.8,1.9,1.5,2.8,2.3C170.2,150.3,169.3,150.5,168.4,150.7z M165.2,148.2c-0.9-0.7-1.9-1.5-2.8-2.3c0.9-0.3,1.7-0.6,2.6-0.9
	c1,0.8,1.9,1.6,2.9,2.4C167,147.7,166.1,148,165.2,148.2z M162,145.6c-2.1-1.7-4.2-3.5-6.3-5.2c-10.9-9.2-22.3-18.7-35.9-23.5
	c-3.4-1.2-6.9-2.1-10.5-2.6c0.4-0.1,0.9-0.2,1.3-0.2c4.4,0.5,8.8,1.5,13,2.9c14.2,4.9,25.9,14.9,37.2,24.6c1.2,1,2.4,2.1,3.6,3.1
	C163.7,145,162.9,145.3,162,145.6z M119.8,117.1c13.6,4.8,24.9,14.2,35.8,23.4c2,1.7,4.1,3.4,6.1,5.1c-0.9,0.3-1.7,0.5-2.6,0.7
	c-3-2.3-5.9-4.7-8.7-7c-10.6-8.7-21.5-17.7-34.5-22.3c-2.8-1-5.7-1.8-8.6-2.4c0.5-0.1,1-0.2,1.4-0.3
	C112.5,115,116.2,115.9,119.8,117.1z M107,114.6c-0.5-0.1-1-0.2-1.5-0.3c0.4-0.1,0.9-0.1,1.3-0.2c0.5,0.1,1,0.1,1.5,0.2
	C107.9,114.4,107.5,114.5,107,114.6z M105.2,114.3c-0.4-0.1-0.9-0.1-1.3-0.2c0.4-0.1,0.7-0.1,1.1-0.2c0,0,0,0,0,0
	c0.5,0,1,0.1,1.4,0.1C106,114.1,105.6,114.2,105.2,114.3z M104.5,114.4c-0.5,0.1-0.9,0.2-1.4,0.3c-0.5-0.1-1-0.2-1.4-0.3
	c0.4-0.1,0.9-0.2,1.3-0.2C103.5,114.3,104,114.4,104.5,114.4z M101.2,114.4c-0.4-0.1-0.9-0.1-1.3-0.2c0.4-0.1,0.8-0.1,1.1-0.1
	c0.4,0,0.9,0.1,1.3,0.1C102,114.2,101.6,114.3,101.2,114.4z M100.5,114.5c-0.4,0.1-0.9,0.2-1.3,0.3c-0.5-0.1-0.9-0.2-1.4-0.3
	c0.4-0.1,0.9-0.1,1.3-0.2C99.5,114.4,100,114.4,100.5,114.5z M97.3,114.4c-0.4-0.1-0.8-0.1-1.2-0.2c0.3,0,0.7-0.1,1-0.1
	c0.4,0,0.9,0.1,1.3,0.1C98,114.3,97.6,114.3,97.3,114.4z M96.5,114.6c-0.4,0.1-0.8,0.2-1.3,0.3c-0.4-0.1-0.9-0.2-1.3-0.3
	c0.4-0.1,0.8-0.1,1.2-0.2C95.5,114.4,96,114.5,96.5,114.6z M94.5,115c-0.3,0.1-0.6,0.1-0.9,0.2c-0.2,0-0.4,0.1-0.5,0.1
	c-0.5-0.1-0.9-0.2-1.4-0.3c0.5-0.1,0.9-0.2,1.4-0.3C93.5,114.8,94,114.9,94.5,115z M91.2,114.8c-0.4-0.1-0.9-0.2-1.3-0.3
	c0.4-0.1,0.8-0.1,1.3-0.2c0.5,0.1,0.9,0.1,1.4,0.2C92,114.7,91.6,114.8,91.2,114.8z M89.3,114.5c-0.4-0.1-0.8-0.1-1.1-0.2
	c0.3,0,0.7-0.1,1-0.1c0.4,0,0.8,0.1,1.2,0.1C90,114.3,89.6,114.4,89.3,114.5z M88.4,114.6c-0.1,0-0.3,0.1-0.4,0.1
	c-0.3,0.1-0.5,0.1-0.8,0.2c-0.4-0.1-0.9-0.2-1.3-0.3c0.4-0.1,0.8-0.1,1.2-0.2C87.5,114.5,87.9,114.5,88.4,114.6z M85.2,114.5
	c-0.4-0.1-0.7-0.1-1.1-0.2c0.3,0,0.7-0.1,1-0.1c0.4,0,0.8,0.1,1.1,0.1C85.9,114.3,85.5,114.4,85.2,114.5z M82.1,114.3
	c-0.3,0.1-0.7,0.1-1,0.2c-0.4-0.1-0.7-0.1-1.1-0.2c0.3,0,0.6-0.1,0.9-0.1C81.3,114.2,81.7,114.2,82.1,114.3z M80.1,114.6
	c-0.4,0.1-0.8,0.2-1.2,0.2c-0.4-0.1-0.8-0.2-1.2-0.3c0.4-0.1,0.8-0.1,1.2-0.2C79.3,114.4,79.7,114.5,80.1,114.6z M76.9,114.4
	c-0.3-0.1-0.7-0.1-1-0.2c0.2,0,0.5-0.1,0.7-0.1c0.1,0,0.1,0,0.2,0c0.4,0.1,0.7,0.1,1.1,0.2C77.6,114.2,77.3,114.3,76.9,114.4z
	 M70.7,113.6c0.1,0,0.2,0,0.2,0c0.2,0,0.3,0,0.5,0.1c-0.2,0-0.4,0-0.6,0.1c-0.2,0-0.4-0.1-0.6-0.1C70.3,113.7,70.5,113.6,70.7,113.6
	z M72.7,113.9c0.3,0.1,0.7,0.1,1,0.2c-0.3,0-0.7,0.1-1,0.1c-0.3-0.1-0.7-0.2-1-0.2C72.1,114,72.4,114,72.7,113.9z M74.7,114.3
	c0.4,0.1,0.8,0.2,1.3,0.3c-0.4,0.1-0.8,0.1-1.2,0.2c-0.4-0.1-0.8-0.2-1.2-0.3C73.9,114.4,74.3,114.3,74.7,114.3z M76.7,114.7
	c0.5,0.1,0.9,0.2,1.4,0.3c-0.5,0.1-0.9,0.2-1.3,0.3c-0.5-0.1-0.9-0.3-1.4-0.4C75.8,114.8,76.2,114.8,76.7,114.7z M78.6,115.1
	c0.5,0.1,1,0.3,1.5,0.4c-0.5,0.1-1,0.2-1.5,0.4c-0.5-0.2-1-0.3-1.4-0.5C77.7,115.3,78.1,115.2,78.6,115.1z M80.5,115.7
	c0.5,0.1,1,0.3,1.5,0.4c-0.5,0.1-1,0.3-1.6,0.5c-0.5-0.2-1-0.4-1.5-0.5C79.5,115.9,80,115.8,80.5,115.7z M82.5,116.2
	c0.5,0.2,1.1,0.3,1.6,0.5c-0.5,0.2-1.1,0.3-1.6,0.5c-0.5-0.2-1-0.4-1.5-0.6C81.4,116.5,81.9,116.4,82.5,116.2z M84.3,116.8
	c0.5,0.2,1.1,0.4,1.6,0.6c-0.6,0.2-1.1,0.4-1.7,0.6c-0.5-0.2-1.1-0.4-1.6-0.6C83.2,117.2,83.8,117,84.3,116.8z M86.2,117.5
	c0.5,0.2,1.1,0.4,1.6,0.6c-0.6,0.2-1.1,0.4-1.7,0.7c-0.5-0.2-1.1-0.5-1.6-0.7C85.1,117.9,85.6,117.7,86.2,117.5z M88,118.2
	c0,0,0.1,0,0.1,0c0.5,0.2,1,0.4,1.5,0.6c-0.6,0.2-1.2,0.5-1.8,0.7c-0.5-0.3-1.1-0.5-1.6-0.7C86.9,118.7,87.5,118.4,88,118.2z
	 M89.9,119c0.6,0.2,1.1,0.5,1.7,0.7c-0.6,0.3-1.2,0.5-1.8,0.8c-0.5-0.3-1.1-0.5-1.6-0.8C88.7,119.5,89.3,119.2,89.9,119z
	 M91.7,119.8c7.7,3.6,14.9,8.4,22,13.1c3.8,2.5,7.7,5.2,11.6,7.5c4.1,2.5,8,4.6,11.9,6.5c-0.6-0.1-1.2-0.2-1.8-0.3
	c-4.9-2.1-10-4.7-15.3-7.8c-3.9-2.3-7.7-4.7-11.4-7.1c-6-3.9-12.2-7.9-18.8-11.1C90.5,120.3,91.1,120.1,91.7,119.8z M125.4,140.1
	c-3.9-2.4-7.8-5-11.6-7.5c-6.9-4.6-14.1-9.4-21.7-13c0.6-0.3,1.2-0.5,1.8-0.7c8.9,3.8,17,9.5,24.9,15c3.8,2.7,7.8,5.4,11.8,7.9
	c3.3,2.1,6.7,4,9.9,5.7c-0.7-0.1-1.3-0.2-2-0.3C134.2,145.2,129.9,142.8,125.4,140.1z M141.5,148c0.6,0.3,1.3,0.6,1.9,0.9
	c-0.6-0.1-1.1-0.2-1.7-0.3c-0.6-0.3-1.2-0.5-1.9-0.8C140.4,147.8,141,147.9,141.5,148z M142.5,148c0.7,0.1,1.3,0.1,2,0.1
	c0.7,0.4,1.4,0.8,2.1,1.2c-0.7-0.1-1.4-0.2-2.1-0.3C143.9,148.7,143.2,148.4,142.5,148z M145.3,148.2c0.7,0,1.5,0,2.2,0
	c0.8,0.5,1.5,0.9,2.3,1.3c-0.8,0-1.5-0.1-2.3-0.2C146.8,149,146,148.6,145.3,148.2z M150.7,150c0.7,0.4,1.4,0.8,2.1,1.1
	c-0.7-0.1-1.5-0.2-2.2-0.3c-0.7-0.3-1.3-0.6-2-1C149.3,150,150,150,150.7,150z M151.4,150.1c0.8,0,1.5,0,2.3,0
	c0.8,0.5,1.5,0.9,2.3,1.3c-0.8,0-1.6-0.1-2.3-0.2C152.8,150.9,152.1,150.5,151.4,150.1z M156.7,151.9c0.7,0.4,1.5,0.8,2.2,1.2
	c-0.7-0.1-1.5-0.2-2.2-0.3c-0.7-0.3-1.4-0.7-2.1-1.1C155.3,151.8,156,151.8,156.7,151.9z M157.4,151.9c0.8,0,1.6,0,2.3,0
	c0.8,0.5,1.6,1,2.4,1.4c-0.8,0-1.6-0.1-2.4-0.2C158.9,152.8,158.1,152.3,157.4,151.9z M162.8,153.8c0.7,0.4,1.5,0.8,2.2,1.2
	c-0.8-0.1-1.5-0.2-2.3-0.3c-0.7-0.3-1.4-0.7-2.1-1.1C161.3,153.7,162.1,153.7,162.8,153.8z M163.4,153.8c0.8,0,1.6,0,2.4,0
	c0.8,0.5,1.6,1,2.4,1.5c-0.8,0-1.6-0.1-2.5-0.2C165,154.7,164.2,154.2,163.4,153.8z M168.9,155.7c0.8,0.4,1.5,0.9,2.3,1.3
	c-0.8-0.1-1.6-0.2-2.4-0.3c-0.7-0.4-1.5-0.8-2.2-1.2C167.4,155.6,168.2,155.6,168.9,155.7z M169.5,155.7c0.8,0,1.6,0,2.5,0
	c0.8,0.5,1.7,1,2.5,1.5c-0.8,0-1.7-0.1-2.5-0.2C171.1,156.6,170.3,156.2,169.5,155.7z M175.1,157.6c0.8,0.5,1.6,0.9,2.4,1.4
	c-0.8-0.1-1.6-0.2-2.4-0.3c-0.8-0.4-1.5-0.8-2.3-1.2C173.5,157.5,174.3,157.6,175.1,157.6z M175.6,157.6c0.8,0,1.7,0,2.5,0
	c0.9,0.5,1.7,1.1,2.5,1.6c-0.9,0-1.7-0.1-2.6-0.2C177.2,158.6,176.4,158.1,175.6,157.6z M181.2,159.6c0.8,0.5,1.6,1,2.5,1.4
	c-0.8-0.1-1.7-0.2-2.5-0.3c-0.8-0.4-1.6-0.8-2.4-1.3C179.6,159.5,180.4,159.6,181.2,159.6z M181.7,159.6c0.9,0,1.7,0,2.6,0
	c0.9,0.6,1.7,1.1,2.6,1.6c-0.9-0.1-1.8-0.1-2.6-0.2C183.4,160.6,182.6,160.1,181.7,159.6z M184.9,159.3c-0.3,0-0.5,0-0.8,0
	c-0.9-0.6-1.8-1.2-2.7-1.8c0.9-0.1,1.8-0.1,2.7-0.2c0.9,0.7,1.8,1.3,2.8,2C186.2,159.3,185.6,159.3,184.9,159.3z M180.9,157.2
	c-0.9-0.6-1.8-1.3-2.7-1.9c0.9-0.1,1.8-0.2,2.7-0.4c0.9,0.7,1.9,1.4,2.8,2.1C182.8,157.1,181.8,157.2,180.9,157.2z M177.8,155
	c-0.9-0.7-1.8-1.4-2.8-2.1c0.9-0.2,1.8-0.4,2.7-0.6c0.4,0.3,0.7,0.6,1.1,0.9c0.6,0.5,1.1,0.9,1.7,1.3
	C179.6,154.7,178.7,154.9,177.8,155z M174.6,152.6c-0.3-0.3-0.7-0.5-1-0.8c-0.6-0.5-1.2-0.9-1.8-1.4c0.8-0.2,1.7-0.4,2.5-0.7
	c0.1,0,0.1,0,0.2-0.1c0.9,0.8,1.9,1.6,2.8,2.4C176.4,152.2,175.5,152.4,174.6,152.6z M169.5,147c-0.5,0.2-0.9,0.3-1.4,0.4
	c-1-0.8-1.9-1.6-2.9-2.4c0.9-0.3,1.7-0.7,2.6-1c1,0.9,2,1.7,3,2.6C170.3,146.7,169.9,146.8,169.5,147z M164.8,144.6
	c-1.3-1.1-2.5-2.1-3.7-3.2c-11.3-9.7-23-19.8-37.3-24.7c-4-1.4-8.1-2.3-12.3-2.9c0.4-0.1,0.8-0.1,1.2-0.2c5.1,0.4,10.1,1.4,15,3.1
	c14.8,5.1,26.9,15.6,38.6,25.9c0.3,0.3,0.7,0.6,1,0.9C166.5,144,165.7,144.3,164.8,144.6z M111.1,113.9
	C111.1,113.9,111.1,113.9,111.1,113.9c-0.4,0-0.9-0.1-1.3-0.1c0.3,0,0.7-0.1,1-0.1c0.4,0,0.9,0,1.3,0.1
	C111.8,113.8,111.5,113.8,111.1,113.9z M110.3,114c-0.4,0.1-0.8,0.1-1.3,0.2c-0.5-0.1-0.9-0.1-1.4-0.2c0.1,0,0.2,0,0.3-0.1
	c0.3,0,0.6-0.1,0.8-0.1C109.4,113.9,109.8,114,110.3,114z M108,113.8c-0.3,0-0.6,0.1-0.8,0.1c-0.4,0-0.8-0.1-1.2-0.1
	c0.3,0,0.6-0.1,0.9-0.1c0.4,0,0.8,0,1.3,0.1C108.1,113.8,108.1,113.8,108,113.8z M104.2,113.9c-0.3,0-0.6,0.1-1,0.1
	c-0.4,0-0.7-0.1-1.1-0.1c0.3,0,0.6-0.1,0.9-0.1C103.4,113.8,103.8,113.9,104.2,113.9z M99.3,114.1c-0.3,0-0.7-0.1-1-0.1
	c0.2,0,0.3,0,0.5,0c0.1,0,0.2,0,0.3,0c0.4,0,0.7,0,1.1,0.1C99.9,114,99.6,114,99.3,114.1z M96.2,114c-0.3,0-0.6,0.1-0.8,0.1
	c-0.3,0-0.6-0.1-0.9-0.1c0.3,0,0.5,0,0.8-0.1C95.5,113.9,95.8,114,96.2,114z M94.4,114.3c-0.4,0.1-0.7,0.1-1.1,0.2
	c-0.4-0.1-0.8-0.1-1.2-0.2c0.3,0,0.7-0.1,1-0.1C93.5,114.2,93.9,114.2,94.4,114.3z M91.4,114.1c-0.3,0-0.6-0.1-0.9-0.1
	c0.2,0,0.4,0,0.7-0.1c0.3,0,0.6,0,1,0.1C91.9,114,91.6,114.1,91.4,114.1z M89.4,113.9c-0.1,0-0.2,0-0.3,0c0,0,0,0,0,0
	c0.1,0,0.3,0,0.4,0C89.5,113.9,89.5,113.9,89.4,113.9z M88.1,114c-0.3,0-0.5,0.1-0.8,0.1c-0.3,0-0.5-0.1-0.8-0.1
	c0.2,0,0.5,0,0.7-0.1C87.5,114,87.8,114,88.1,114z M85.4,113.8c0,0-0.1,0-0.1,0C85.3,113.8,85.4,113.8,85.4,113.8
	C85.4,113.8,85.4,113.8,85.4,113.8z M83.9,114c-0.2,0-0.5,0.1-0.7,0.1c-0.3,0-0.5-0.1-0.8-0.1c0.2,0,0.4,0,0.6,0
	C83.4,113.9,83.7,114,83.9,114z M81.2,113.8C81.2,113.8,81.2,113.8,81.2,113.8C81.2,113.8,81.2,113.8,81.2,113.8
	C81.3,113.8,81.2,113.8,81.2,113.8z M79.8,114c-0.1,0-0.2,0-0.3,0c-0.1,0-0.2,0-0.3,0c-0.2,0-0.5-0.1-0.7-0.1c0.2,0,0.4,0,0.6,0
	C79.2,113.9,79.5,113.9,79.8,114z M66.3,113.4c0.2,0,0.5,0.1,0.7,0.1c-0.2,0-0.4,0-0.5,0.1c-0.2,0-0.4-0.1-0.6-0.1
	C66,113.4,66.2,113.4,66.3,113.4z M68.5,113.8c0.3,0.1,0.7,0.1,1,0.2c-0.3,0-0.6,0.1-0.9,0.1c-0.3-0.1-0.7-0.2-1-0.2
	C67.8,113.8,68.1,113.8,68.5,113.8z M70.5,114.1c0.4,0.1,0.8,0.2,1.2,0.3c-0.4,0.1-0.8,0.1-1.2,0.2c-0.4-0.1-0.8-0.2-1.2-0.3
	C69.7,114.2,70.1,114.2,70.5,114.1z M72.4,114.6c0.5,0.1,0.9,0.2,1.4,0.3c-0.5,0.1-0.9,0.2-1.4,0.3c-0.4-0.1-0.9-0.3-1.3-0.4
	C71.6,114.7,72,114.6,72.4,114.6z M74.4,115.1c0.5,0.1,1,0.3,1.4,0.4c-0.5,0.1-1,0.2-1.5,0.4c-0.5-0.2-1-0.3-1.4-0.5
	C73.5,115.3,74,115.2,74.4,115.1z M76.4,115.6c0.5,0.2,1,0.3,1.5,0.5c-0.5,0.1-1,0.3-1.6,0.4c-0.5-0.2-1-0.4-1.5-0.5
	C75.4,115.9,75.9,115.8,76.4,115.6z M78.3,116.2c0.5,0.2,1,0.3,1.6,0.5c-0.5,0.2-1.1,0.3-1.6,0.5c-0.5-0.2-1-0.4-1.5-0.6
	C77.2,116.5,77.8,116.4,78.3,116.2z M80.2,116.9c0.5,0.2,1.1,0.4,1.6,0.6c-0.6,0.2-1.1,0.4-1.7,0.6c-0.5-0.2-1-0.4-1.6-0.6
	C79.1,117.2,79.7,117,80.2,116.9z M84,118.3c0.1,0,0.2,0.1,0.2,0.1c0.5,0.2,0.9,0.4,1.4,0.6c-0.6,0.2-1.2,0.5-1.7,0.7
	c-0.5-0.3-1.1-0.5-1.6-0.8C82.8,118.7,83.4,118.5,84,118.3z M85.8,119.1c0.6,0.2,1.1,0.5,1.7,0.8c-0.6,0.3-1.2,0.5-1.8,0.8
	c-0.5-0.3-1.1-0.5-1.7-0.8C84.6,119.6,85.2,119.3,85.8,119.1z M87.6,119.9c0.6,0.3,1.1,0.5,1.7,0.8c-0.6,0.3-1.2,0.5-1.8,0.8
	c-0.6-0.3-1.1-0.6-1.7-0.8C86.4,120.4,87,120.2,87.6,119.9z M89.4,120.8c6.6,3.3,12.9,7.3,19,11.3c3.7,2.4,7.6,4.9,11.5,7.1
	c4.7,2.7,9.2,5.1,13.6,7.1c-0.4-0.1-0.8-0.2-1.2-0.3c-5.6-2.2-11.5-5-17.6-8.4c-3.8-2.1-7.6-4.5-11.3-6.7
	c-5.1-3.2-10.4-6.4-15.8-9.2C88.2,121.3,88.8,121.1,89.4,120.8z M135.4,147.1c0.1,0.1,0.3,0.1,0.4,0.2c-0.2-0.1-0.4-0.1-0.6-0.2
	C135.3,147.1,135.4,147.1,135.4,147.1z M138.6,147.6c0.5,0.2,0.9,0.4,1.4,0.6c-0.5-0.1-0.9-0.2-1.4-0.3c-0.5-0.2-0.9-0.4-1.4-0.5
	C137.7,147.5,138.1,147.5,138.6,147.6z M143.5,149.3c0.4,0.1,0.8,0.1,1.3,0.2c0.4,0.2,0.8,0.4,1.3,0.6c-0.4-0.1-0.9-0.2-1.3-0.3
	C144.3,149.7,143.9,149.5,143.5,149.3z M142.1,149.2c-0.3-0.1-0.5-0.1-0.8-0.2c0.2,0,0.3,0.1,0.5,0.1
	C141.9,149.1,142,149.1,142.1,149.2z M145.9,149.7c0.6,0.1,1.2,0.1,1.8,0.2c0.6,0.3,1.2,0.6,1.8,0.9c-0.6-0.1-1.2-0.2-1.9-0.3
	C147,150.2,146.5,149.9,145.9,149.7z M150.7,151.3c0.5,0.2,1,0.5,1.5,0.7c-0.5-0.1-1-0.2-1.5-0.3c-0.5-0.2-1-0.4-1.5-0.6
	C149.8,151.2,150.3,151.3,150.7,151.3z M151.8,151.5c0.6,0.1,1.3,0.1,1.9,0.2c0.7,0.3,1.3,0.7,2,1c-0.7-0.1-1.3-0.2-2-0.3
	C153.1,152.1,152.5,151.8,151.8,151.5z M156.9,153.3c0.5,0.2,1,0.5,1.5,0.7c-0.6-0.1-1.2-0.2-1.7-0.4c-0.4-0.2-0.9-0.4-1.3-0.5
	C155.8,153.1,156.4,153.2,156.9,153.3z M157.9,153.4c0.7,0.1,1.3,0.1,2,0.2c0.6,0.3,1.3,0.7,1.9,1c-0.7-0.1-1.4-0.2-2.1-0.4
	C159.1,153.9,158.5,153.7,157.9,153.4z M162.9,155.1c0.6,0.3,1.1,0.5,1.7,0.8c-0.6-0.1-1.2-0.3-1.8-0.4c-0.5-0.2-1.1-0.4-1.6-0.7
	C161.7,155,162.3,155,162.9,155.1z M163.8,155.2c0.7,0.1,1.4,0.2,2.1,0.2c0.7,0.4,1.4,0.7,2.1,1.1c-0.7-0.1-1.4-0.2-2.2-0.4
	C165.1,155.9,164.5,155.6,163.8,155.2z M169,157.1c0.6,0.3,1.2,0.6,1.8,0.9c-0.6-0.1-1.3-0.3-1.9-0.4c-0.6-0.2-1.1-0.5-1.7-0.7
	C167.8,156.9,168.4,157,169,157.1z M169.9,157.2c0.7,0.1,1.4,0.2,2.2,0.2c0.7,0.4,1.4,0.8,2.2,1.1c-0.7-0.1-1.5-0.2-2.2-0.4
	C171.3,157.9,170.6,157.5,169.9,157.2z M175.2,159c0.6,0.3,1.3,0.6,1.9,0.9c-0.7-0.1-1.3-0.3-2-0.4c-0.6-0.3-1.2-0.5-1.8-0.8
	C173.9,158.9,174.5,159,175.2,159z M176,159.2c0.8,0.1,1.5,0.2,2.2,0.3c0.7,0.4,1.5,0.8,2.2,1.2c-0.8-0.1-1.5-0.3-2.3-0.4
	C177.4,159.9,176.7,159.5,176,159.2z M181.3,161.1c0.7,0.3,1.4,0.7,2,1c-0.7-0.1-1.4-0.3-2.1-0.5c-0.7-0.3-1.3-0.6-2-0.9
	C180,160.8,180.6,161,181.3,161.1z M182.1,161.2c0.8,0.1,1.6,0.2,2.3,0.3c0.8,0.4,1.6,0.9,2.3,1.3c-0.8-0.1-1.6-0.3-2.4-0.4
	C183.6,161.9,182.8,161.5,182.1,161.2z M184.9,161.5c0.8,0.1,1.7,0.1,2.5,0.2c0.8,0.5,1.7,1,2.5,1.5c-0.9-0.1-1.7-0.2-2.6-0.3
	C186.6,162.4,185.8,161.9,184.9,161.5z M190.6,163.5c0.8,0.4,1.6,0.9,2.4,1.3c-0.8-0.1-1.6-0.3-2.5-0.5c-0.8-0.4-1.6-0.8-2.3-1.2
	C189,163.3,189.8,163.4,190.6,163.5z M191.1,163.6c0.9,0.1,1.7,0.1,2.6,0.2c0.9,0.5,1.7,1,2.6,1.5c-0.9-0.1-1.8-0.2-2.7-0.4
	C192.8,164.5,192,164,191.1,163.6z M196.9,165.6c0.8,0.5,1.7,0.9,2.5,1.4c-0.9-0.1-1.7-0.3-2.6-0.5c-0.8-0.4-1.6-0.8-2.4-1.2
	C195.3,165.5,196.1,165.6,196.9,165.6z M199,165.6c-0.8-0.1-1.5-0.1-2.3-0.2c-0.9-0.5-1.8-1-2.7-1.6c0.1,0,0.2,0,0.2,0
	c0.8,0,1.6,0,2.5,0.1c0.9,0.6,1.8,1.2,2.7,1.8C199.3,165.6,199.2,165.6,199,165.6z M194.3,163.5c-0.3,0-0.5,0-0.8,0
	c-0.9-0.6-1.8-1.1-2.7-1.7c0.9,0,1.8,0,2.7-0.1c0.9,0.6,1.9,1.3,2.8,1.9C195.7,163.5,195,163.5,194.3,163.5z M190.3,161.4
	c-0.9-0.6-1.8-1.2-2.8-1.9c0.9-0.1,1.8-0.1,2.7-0.2c0.9,0.7,1.9,1.4,2.8,2C192.2,161.4,191.3,161.4,190.3,161.4z M187.1,159.3
	c-0.9-0.6-1.9-1.3-2.8-2c0.9-0.1,1.8-0.3,2.7-0.4c0.9,0.7,1.9,1.5,2.8,2.2C189,159.1,188.1,159.2,187.1,159.3z M183.9,157
	c-0.9-0.7-1.9-1.4-2.8-2.1c0.8-0.1,1.6-0.3,2.4-0.5c0.1,0,0.2-0.1,0.3-0.1c0.1,0.1,0.2,0.2,0.3,0.2c0.9,0.7,1.7,1.4,2.6,2
	C185.8,156.7,184.8,156.9,183.9,157z M183.4,154c-0.9,0.2-1.8,0.4-2.7,0.5c-0.6-0.5-1.2-0.9-1.8-1.4c-0.3-0.3-0.7-0.5-1-0.8
	c0.3-0.1,0.7-0.2,1-0.2c0.6-0.2,1.1-0.3,1.7-0.5C181.5,152.4,182.5,153.2,183.4,154C183.4,154,183.4,154,183.4,154z M178.8,151.7
	c-0.4,0.1-0.9,0.2-1.3,0.3c-1-0.8-1.9-1.6-2.9-2.4c0.9-0.3,1.8-0.6,2.7-0.9c1,0.9,2,1.7,2.9,2.5
	C179.7,151.4,179.3,151.5,178.8,151.7z M174.2,149.3c-1-0.8-2-1.7-2.9-2.5c0.9-0.3,1.7-0.7,2.6-1.1c1,0.9,2,1.8,3,2.7
	C176,148.7,175.1,149,174.2,149.3z M170.9,146.5c-1-0.9-2-1.7-3-2.6c0.8-0.4,1.7-0.8,2.5-1.2c0.4,0.4,0.9,0.8,1.3,1.2
	c0.6,0.5,1.2,1,1.8,1.6C172.7,145.8,171.8,146.1,170.9,146.5z M167.5,143.5c-0.4-0.3-0.7-0.6-1.1-0.9
	c-11.7-10.2-23.9-20.8-38.7-25.9c-4.6-1.6-9.3-2.6-14.1-3c0.3,0,0.7-0.1,1-0.1c5.8,0.2,11.5,1.3,17,3.1c14.7,5,26.8,15.3,38.4,25.6
	C169.2,142.8,168.4,143.2,167.5,143.5z M131.7,116.6c-5.1-1.7-10.4-2.7-15.8-3.1c0.3,0,0.5,0,0.8-0.1c6.4,0.1,12.8,1.1,18.9,3.1
	c14.2,4.7,25.9,14.4,37.1,24.4c-0.8,0.5-1.6,0.9-2.5,1.3C158.6,131.9,146.5,121.5,131.7,116.6z M113.9,113.5c-0.3,0-0.5,0.1-0.8,0.1
	c-0.3,0-0.6,0-0.9-0.1c0.2,0,0.4,0,0.6,0C113.2,113.5,113.5,113.5,113.9,113.5z M109.8,113.6c-0.2,0-0.4,0.1-0.7,0.1
	c-0.3,0-0.5,0-0.8-0.1c0.2,0,0.4,0,0.5,0C109.2,113.6,109.5,113.6,109.8,113.6z M105.8,113.7c-0.2,0-0.4,0-0.6,0.1
	c-0.2,0-0.4,0-0.7-0.1c0.1,0,0.3,0,0.4,0C105.3,113.7,105.5,113.7,105.8,113.7z M101.8,113.7c-0.1,0-0.3,0-0.4,0.1
	c-0.2,0-0.4,0-0.6-0.1c0.1,0,0.2,0,0.3,0C101.3,113.7,101.5,113.7,101.8,113.7z M93.6,113.8c-0.1,0-0.2,0-0.3,0c-0.1,0-0.2,0-0.4,0
	c0,0,0.1,0,0.1,0C93.3,113.8,93.5,113.8,93.6,113.8z M64.2,113.5c0.2,0,0.3,0.1,0.5,0.1c0.2,0,0.4,0.1,0.5,0.1c-0.3,0-0.6,0.1-1,0.1
	c-0.3-0.1-0.6-0.2-1-0.3C63.6,113.6,63.9,113.5,64.2,113.5z M66.2,114c0.4,0.1,0.8,0.2,1.2,0.3c-0.4,0.1-0.8,0.1-1.2,0.2
	c-0.4-0.1-0.8-0.2-1.2-0.4C65.5,114,65.8,114,66.2,114z M68.3,114.4c0.4,0.1,0.9,0.2,1.3,0.4c-0.5,0.1-0.9,0.2-1.4,0.3
	c-0.4-0.1-0.9-0.3-1.3-0.4C67.4,114.6,67.8,114.5,68.3,114.4z M70.2,115c0.5,0.1,1,0.3,1.5,0.4c-0.5,0.1-1,0.2-1.5,0.4
	c-0.5-0.2-0.9-0.3-1.4-0.5C69.2,115.2,69.7,115.1,70.2,115z M72.2,115.6c0.5,0.2,1,0.3,1.5,0.5c-0.5,0.1-1,0.3-1.6,0.4
	c-0.5-0.2-1-0.4-1.5-0.6C71.1,115.8,71.7,115.7,72.2,115.6z M74.1,116.2c0.5,0.2,1,0.4,1.5,0.5c-0.5,0.2-1.1,0.3-1.6,0.5
	c-0.5-0.2-1-0.4-1.5-0.6C73,116.5,73.6,116.3,74.1,116.2z M76,116.9c0.5,0.2,1.1,0.4,1.6,0.6c-0.6,0.2-1.1,0.4-1.7,0.6
	c-0.5-0.2-1-0.5-1.6-0.7C74.9,117.2,75.5,117,76,116.9z M79.8,118.4c0.1,0.1,0.3,0.1,0.4,0.2c0.4,0.2,0.8,0.4,1.2,0.5
	c-0.6,0.2-1.2,0.5-1.7,0.7c-0.5-0.3-1.1-0.5-1.6-0.8C78.7,118.8,79.2,118.6,79.8,118.4z M81.7,119.2c0.6,0.2,1.1,0.5,1.7,0.8
	c-0.6,0.2-1.2,0.5-1.8,0.8c-0.6-0.3-1.1-0.5-1.7-0.8C80.5,119.6,81.1,119.4,81.7,119.2z M83.5,120c0.6,0.3,1.1,0.5,1.7,0.8
	c-0.6,0.3-1.2,0.5-1.7,0.8c-0.6-0.3-1.1-0.6-1.7-0.9C82.3,120.5,82.9,120.3,83.5,120z M85.3,120.9c0.6,0.3,1.1,0.6,1.7,0.9
	c-0.6,0.3-1.2,0.6-1.7,0.8c-0.6-0.3-1.1-0.6-1.7-0.9C84.2,121.4,84.8,121.2,85.3,120.9z M87.2,121.8c5.5,2.9,10.9,6.1,16.1,9.3
	c3.7,2.3,7.5,4.6,11.3,6.7c5.1,2.9,10,5.3,14.7,7.3c-0.2,0-0.3-0.1-0.5-0.1c-6.1-2.2-12.5-5.1-19.4-8.8c-3.8-2-7.5-4.2-11.2-6.4
	c-4.2-2.4-8.4-4.9-12.8-7.2C86,122.4,86.6,122.1,87.2,121.8z M147.2,150.8c0.2,0,0.3,0.1,0.5,0.1c0.2,0.1,0.5,0.2,0.7,0.3
	c-0.1,0-0.2-0.1-0.4-0.1C147.8,151,147.5,150.9,147.2,150.8z M153.2,152.7c0.2,0,0.4,0.1,0.7,0.1c0.2,0.1,0.4,0.2,0.6,0.2
	c-0.3-0.1-0.6-0.2-0.9-0.2C153.4,152.7,153.3,152.7,153.2,152.7z M158.9,154.4c0.3,0.1,0.7,0.1,1,0.2c0.3,0.1,0.6,0.3,1,0.4
	c-0.4-0.1-0.7-0.2-1.1-0.3C159.4,154.6,159.1,154.5,158.9,154.4z M164.8,156.3c0.4,0.1,0.8,0.2,1.1,0.2c0.4,0.2,0.7,0.3,1.1,0.5
	c-0.4-0.1-0.8-0.2-1.2-0.3C165.5,156.6,165.2,156.5,164.8,156.3z M170.8,158.3c0.4,0.1,0.8,0.2,1.3,0.3c0.4,0.2,0.8,0.4,1.2,0.6
	c-0.4-0.1-0.9-0.2-1.3-0.4C171.6,158.6,171.2,158.4,170.8,158.3z M176.8,160.2c0.5,0.1,0.9,0.2,1.4,0.3c0.5,0.2,1,0.4,1.4,0.6
	c-0.5-0.1-1-0.3-1.5-0.4C177.7,160.6,177.3,160.4,176.8,160.2z M182.9,162.3c0.5,0.1,1,0.2,1.5,0.3c0.5,0.2,1,0.5,1.5,0.7
	c-0.6-0.1-1.1-0.3-1.7-0.5C183.9,162.7,183.4,162.5,182.9,162.3z M185.4,162.8c0.7,0.1,1.4,0.2,2.1,0.4c0.7,0.4,1.4,0.7,2.1,1.1
	c-0.7-0.2-1.5-0.3-2.2-0.5C186.8,163.4,186.1,163.1,185.4,162.8z M190.7,164.7c0.6,0.3,1.1,0.5,1.7,0.8c-0.6-0.2-1.2-0.3-1.8-0.5
	c-0.5-0.2-1-0.4-1.6-0.6C189.6,164.5,190.1,164.6,190.7,164.7z M191.6,164.9c0.8,0.1,1.5,0.3,2.2,0.4c0.7,0.4,1.5,0.8,2.2,1.1
	c-0.8-0.2-1.6-0.4-2.3-0.6C193,165.5,192.3,165.2,191.6,164.9z M197,166.8c0.6,0.3,1.2,0.6,1.8,0.9c-0.7-0.2-1.3-0.4-2-0.6
	c-0.6-0.2-1.1-0.5-1.7-0.7C195.8,166.6,196.4,166.7,197,166.8z M197.8,167c0.8,0.2,1.5,0.3,2.3,0.4c0.8,0.4,1.6,0.8,2.3,1.2
	c-0.8-0.2-1.6-0.4-2.4-0.6C199.3,167.7,198.5,167.4,197.8,167z M203.3,169c0.7,0.3,1.3,0.6,2,1c-0.7-0.2-1.4-0.4-2-0.6
	c-0.7-0.3-1.3-0.5-2-0.8C202,168.8,202.6,168.9,203.3,169z M204,169.2c0.8,0.2,1.6,0.3,2.4,0.5c0.8,0.4,1.6,0.9,2.4,1.3
	c-0.8-0.2-1.7-0.4-2.5-0.6C205.6,169.9,204.8,169.6,204,169.2z M209.7,171.3c0.7,0.3,1.4,0.7,2.1,1c-0.7-0.2-1.4-0.4-2.2-0.7
	c-0.7-0.3-1.3-0.6-2-0.9C208.3,171,209,171.2,209.7,171.3z M209.5,171.1c-0.9-0.4-1.7-0.9-2.6-1.3c0.5,0.1,1,0.2,1.4,0.2
	c0.4,0.1,0.8,0.1,1.2,0.2c0.9,0.5,1.8,1,2.7,1.5C211.3,171.5,210.4,171.3,209.5,171.1z M208.4,169.7c-0.7-0.1-1.4-0.2-2.1-0.3
	c-0.9-0.5-1.8-1-2.7-1.5c0,0,0.1,0,0.1,0c0.9,0.1,1.8,0.2,2.6,0.2c0.9,0.6,1.8,1.1,2.7,1.7C208.9,169.8,208.6,169.7,208.4,169.7z
	 M203.7,167.6c-0.2,0-0.5-0.1-0.7-0.1c-0.9-0.5-1.8-1.1-2.7-1.6c0.9,0.1,1.8,0.1,2.8,0.1c0.9,0.6,1.9,1.2,2.8,1.8
	C205.2,167.8,204.4,167.7,203.7,167.6z M199.8,165.6c-0.9-0.6-1.8-1.2-2.8-1.8c0.9,0,1.9,0,2.8-0.1c0.9,0.7,1.9,1.3,2.8,2
	C201.7,165.7,200.8,165.7,199.8,165.6z M196.6,163.5c-0.9-0.6-1.9-1.3-2.8-1.9c0.9-0.1,1.9-0.1,2.8-0.2c1,0.7,1.9,1.4,2.9,2.1
	C198.5,163.5,197.6,163.6,196.6,163.5z M193.4,161.3c-0.9-0.7-1.9-1.3-2.8-2c0.7-0.1,1.5-0.2,2.2-0.3c0.2,0,0.4-0.1,0.6-0.1
	c1,0.8,1.9,1.5,2.9,2.2C195.3,161.2,194.3,161.3,193.4,161.3z M192.7,158.7c-0.9,0.1-1.7,0.2-2.6,0.3c-1-0.7-1.9-1.4-2.9-2.2
	c0.3-0.1,0.6-0.1,0.9-0.1c0.6-0.1,1.3-0.3,1.9-0.4c1,0.8,1.9,1.6,2.9,2.4C192.9,158.6,192.8,158.7,192.7,158.7z M188.1,156.3
	c-0.4,0.1-0.8,0.1-1.2,0.2c-0.9-0.7-1.8-1.4-2.7-2.1c-0.1-0.1-0.1-0.1-0.2-0.2c0.9-0.2,1.8-0.5,2.8-0.7c0.9,0.8,1.8,1.5,2.7,2.3
	c0.1,0.1,0.2,0.1,0.2,0.2C189.2,156.1,188.6,156.2,188.1,156.3z M183.7,153.9c-1-0.8-1.9-1.6-2.9-2.4c0.9-0.3,1.8-0.6,2.7-0.9
	c1,0.9,2,1.7,3,2.6C185.5,153.5,184.6,153.7,183.7,153.9z M180.4,151.2c-1-0.8-2-1.7-3-2.6c0.9-0.3,1.8-0.7,2.6-1.1
	c1,0.9,2,1.8,3,2.7C182.2,150.6,181.3,150.9,180.4,151.2z M177.1,148.3c-1-0.9-2-1.8-3-2.7c0.9-0.4,1.7-0.8,2.6-1.2
	c0.2,0.2,0.4,0.4,0.6,0.6c0.8,0.7,1.6,1.5,2.5,2.2C178.8,147.6,178,148,177.1,148.3z M173.7,145.3c-0.6-0.5-1.2-1.1-1.8-1.6
	c-0.4-0.4-0.9-0.8-1.3-1.1c0.8-0.4,1.7-0.9,2.5-1.3c1.1,1,2.1,1.9,3.2,2.9C175.4,144.6,174.6,145,173.7,145.3z M139.6,116.4
	c13.6,4.5,25,13.4,35.7,23c-0.8,0.5-1.6,1-2.4,1.5c-11.2-10-23-19.7-37.2-24.4c-5.4-1.8-11.1-2.8-16.9-3.1
	C125.8,113.2,132.9,114.2,139.6,116.4z M57.3,112.8c0.2,0,0.3,0,0.5,0c0.2,0,0.4,0.1,0.6,0.1c-0.2,0-0.4,0-0.6,0
	C57.7,112.9,57.5,112.8,57.3,112.8z M59,113.2c0.3,0,0.6,0,0.9,0c0.3,0.1,0.7,0.2,1,0.2c-0.3,0-0.6,0.1-1,0.1
	C59.6,113.4,59.3,113.3,59,113.2z M60.8,113.8c0.4,0,0.8-0.1,1.2-0.1c0.4,0.1,0.8,0.2,1.2,0.3c-0.4,0.1-0.8,0.1-1.2,0.2
	C61.5,114,61.1,113.9,60.8,113.8z M62.6,114.4c0.5-0.1,0.9-0.1,1.4-0.2c0.4,0.1,0.9,0.2,1.3,0.4c-0.5,0.1-0.9,0.2-1.4,0.3
	C63.5,114.7,63,114.6,62.6,114.4z M64.5,115.1c0.5-0.1,1-0.2,1.5-0.3c0.5,0.1,0.9,0.3,1.4,0.4c-0.5,0.1-1,0.2-1.5,0.4
	C65.4,115.4,64.9,115.3,64.5,115.1z M66.3,115.8c0.5-0.1,1.1-0.2,1.6-0.4c0.5,0.2,1,0.3,1.5,0.5c-0.5,0.1-1.1,0.3-1.6,0.4
	C67.3,116.2,66.8,116,66.3,115.8z M68.2,116.6c0.6-0.2,1.1-0.3,1.7-0.4c0.5,0.2,1,0.4,1.5,0.6c-0.6,0.2-1.1,0.3-1.7,0.5
	C69.2,117,68.7,116.8,68.2,116.6z M70.1,117.4c0.6-0.2,1.1-0.3,1.7-0.5c0.5,0.2,1.1,0.4,1.6,0.6c-0.6,0.2-1.1,0.4-1.7,0.6
	C71.2,117.8,70.6,117.6,70.1,117.4z M72,118.2c0.6-0.2,1.2-0.4,1.7-0.6c0.5,0.2,1.1,0.4,1.6,0.7c-0.6,0.2-1.2,0.4-1.7,0.6
	C73.1,118.7,72.5,118.4,72,118.2z M73.9,119c0.6-0.2,1.2-0.4,1.7-0.6c0.2,0.1,0.4,0.2,0.7,0.3c0.3,0.1,0.7,0.3,1,0.4
	c-0.6,0.2-1.2,0.5-1.7,0.7C75,119.6,74.4,119.3,73.9,119z M75.8,119.9c0.6-0.2,1.2-0.5,1.7-0.7c0.6,0.3,1.1,0.5,1.7,0.8
	c-0.6,0.2-1.2,0.5-1.7,0.7C76.9,120.5,76.3,120.2,75.8,119.9z M77.6,120.9c0.6-0.3,1.2-0.5,1.7-0.7c0.6,0.3,1.1,0.5,1.7,0.8
	c-0.6,0.3-1.1,0.5-1.7,0.8C78.8,121.4,78.2,121.1,77.6,120.9z M79.5,121.8c0.6-0.3,1.1-0.5,1.7-0.8c0.6,0.3,1.1,0.6,1.7,0.9
	c-0.6,0.3-1.1,0.5-1.7,0.8C80.7,122.4,80.1,122.1,79.5,121.8z M81.4,122.8c0.6-0.3,1.1-0.5,1.7-0.8c0.6,0.3,1.2,0.6,1.7,0.9
	c-0.6,0.3-1.1,0.6-1.7,0.8C82.6,123.4,82,123.1,81.4,122.8z M104,135c-3.8-1.9-7.5-4-11.2-6c-3.1-1.7-6.3-3.5-9.5-5.2
	c0.6-0.3,1.1-0.6,1.7-0.8c4.4,2.3,8.8,4.9,13,7.4c3.7,2.1,7.4,4.3,11.2,6.4c4.5,2.5,8.9,4.6,13,6.3C116.8,141.1,110.8,138.5,104,135
	z M187.5,164c0,0,0.1,0,0.1,0c0,0,0.1,0,0.1,0C187.7,164,187.6,164,187.5,164z M193.5,166c0.1,0,0.3,0.1,0.4,0.1
	c0.1,0.1,0.3,0.1,0.4,0.2C194,166.2,193.7,166.1,193.5,166z M199.5,168.1c0.2,0.1,0.5,0.1,0.7,0.2c0.2,0.1,0.4,0.2,0.7,0.3
	C200.4,168.5,200,168.3,199.5,168.1z M205.7,170.3c0.3,0.1,0.5,0.2,0.8,0.2c0.3,0.1,0.6,0.3,1,0.4
	C206.9,170.8,206.3,170.6,205.7,170.3z M211.6,172.5c0.4,0.1,0.8,0.2,1.3,0.4c0.4,0.2,0.8,0.4,1.2,0.5
	C213.3,173.1,212.5,172.8,211.6,172.5z M217.9,174.9c0.5,0.1,0.9,0.3,1.4,0.4c0.5,0.2,0.9,0.4,1.4,0.7
	C219.8,175.6,218.9,175.2,217.9,174.9z M227.4,178.5c-1.1-0.4-2.2-0.8-3.3-1.3c0.5,0.2,1.1,0.3,1.6,0.5
	C226.3,178,226.9,178.3,227.4,178.5z M224.9,177.3c-0.8-0.3-1.6-0.5-2.5-0.8c-0.8-0.3-1.5-0.7-2.3-1c0.8,0.2,1.5,0.4,2.3,0.6
	c0,0,0,0,0,0C223.3,176.5,224.1,176.9,224.9,177.3z M221.8,175.8c-0.9-0.2-1.8-0.5-2.7-0.7c-0.8-0.4-1.7-0.8-2.5-1.2
	c0.4,0.1,0.8,0.2,1.2,0.3c0.5,0.1,1,0.2,1.4,0.3C220.1,174.8,221,175.3,221.8,175.8z M217.8,173.6c0.3,0.2,0.6,0.3,0.9,0.5
	c-0.3-0.1-0.6-0.1-0.9-0.2c-0.6-0.1-1.3-0.3-1.9-0.4c-0.9-0.5-1.8-0.9-2.6-1.4c0.9,0.2,1.8,0.3,2.7,0.4
	C216.6,172.8,217.2,173.2,217.8,173.6z M215.5,172.2c-0.8-0.1-1.6-0.2-2.4-0.4c-0.2,0-0.3-0.1-0.5-0.1c-0.9-0.5-1.8-1-2.7-1.6
	c0.9,0.1,1.8,0.2,2.8,0.3C213.6,171,214.6,171.6,215.5,172.2z M212.3,170.1c-1-0.1-1.9-0.2-2.9-0.3c-0.9-0.6-1.9-1.1-2.8-1.7
	c0.9,0.1,1.9,0.1,2.8,0.1C210.4,168.9,211.3,169.5,212.3,170.1z M209,168c-1,0-1.9-0.1-2.9-0.1c-0.9-0.6-1.9-1.2-2.8-1.8
	c0.9,0,1.9,0,2.8,0C207.1,166.7,208.1,167.3,209,168z M205.8,165.7c-1,0-1.9,0-2.9,0c-1-0.6-1.9-1.3-2.9-2c0.7,0,1.3-0.1,2-0.1
	c0.3,0,0.6-0.1,0.9-0.1C203.8,164.3,204.8,165,205.8,165.7z M202.5,163.3c-0.2,0-0.4,0-0.5,0.1c-0.8,0.1-1.6,0.1-2.3,0.1
	c-1-0.7-1.9-1.4-2.9-2.1c0.2,0,0.4,0,0.6-0.1c0.7-0.1,1.5-0.2,2.2-0.3C200.6,161.8,201.6,162.5,202.5,163.3z M199.3,160.7
	c-0.6,0.1-1.3,0.2-1.9,0.3c-0.3,0-0.6,0.1-1,0.1c-1-0.7-1.9-1.5-2.9-2.2c0.9-0.2,1.9-0.3,2.8-0.5C197.3,159.1,198.3,160,199.3,160.7
	z M194.8,157.1c0.4,0.3,0.8,0.7,1.2,1c-0.9,0.2-1.9,0.4-2.8,0.5c-1-0.8-1.9-1.6-2.9-2.4c0.9-0.2,1.9-0.5,2.8-0.7
	C193.6,156,194.2,156.6,194.8,157.1z M192.7,155.2c-0.9,0.3-1.9,0.5-2.8,0.7c-0.1-0.1-0.2-0.2-0.3-0.3c-0.9-0.7-1.8-1.5-2.6-2.2
	c0.9-0.3,1.8-0.6,2.7-0.9C190.7,153.4,191.7,154.3,192.7,155.2z M189.3,152.3c-0.9,0.3-1.8,0.6-2.8,0.9c-1-0.9-2-1.7-3-2.6
	c0.9-0.3,1.8-0.7,2.7-1.1C187.3,150.4,188.3,151.3,189.3,152.3z M185.9,149.2c-0.9,0.4-1.8,0.7-2.7,1.1c-1-0.9-2-1.8-3-2.7
	c0.9-0.4,1.7-0.8,2.6-1.2C183.8,147.2,184.9,148.2,185.9,149.2z M182.5,146c-0.9,0.4-1.7,0.8-2.6,1.2c-0.8-0.8-1.7-1.5-2.5-2.3
	c-0.2-0.2-0.4-0.4-0.6-0.5c0.8-0.4,1.7-0.9,2.5-1.4C180.3,144,181.4,145,182.5,146z"/>
</svg>
