<?xml version="1.0" encoding="utf-8"?>
<!-- Generator: Adobe Illustrator 21.0.0, SVG Export Plug-In . SVG Version: 6.00 Build 0)  -->
<svg version="1.0" id="Layer_1" xmlns="http://www.w3.org/2000/svg" xmlns:xlink="http://www.w3.org/1999/xlink" x="0px" y="0px"
	 viewBox="0 0 78 70" style="enable-background:new 0 0 78 70;" xml:space="preserve">
<style type="text/css">
	.st0{fill:#FBAC18;}
	.st1{opacity:0.14;}
	.st2{fill:#FB4129;}
	.st3{fill:#FFFFFF;}
	.st4{fill:#D15041;}
	.st5{opacity:0.23;}
	.st6{fill:#12365A;}
	.st7{fill:#BECCCC;}
	.st8{fill:#49C8FF;}
	.st9{fill:#383838;}
	.st10{fill:#353535;}
	.st11{opacity:0.2;fill:#FFFFFF;}
	.st12{fill:#374757;}
	.st13{fill:#303F4D;}
	.st14{fill:#536C85;}
	.st15{fill:#516882;}
	.st16{fill:none;stroke:#81A4B5;stroke-width:0.0841;}
	.st17{fill:#20669C;}
	.st18{fill:none;stroke:#111317;stroke-width:0.4972;stroke-miterlimit:10;}
	.st19{fill:#185D8C;}
	.st20{fill:#ABABAB;}
	.st21{fill:none;stroke:#EEF9FF;stroke-width:0.129;stroke-miterlimit:10;stroke-dasharray:0.8103,0.8103;}
	.st22{fill:none;stroke:#EEF9FF;stroke-width:0.1935;stroke-miterlimit:10;stroke-dasharray:0.5064,0.5064;}
	.st23{fill:none;stroke:#EEF9FF;stroke-width:0.0645;stroke-miterlimit:10;stroke-dasharray:1.0129,1.0129;}
	.st24{fill:#C2E5E1;}
	.st25{fill:#03384D;}
	.st26{opacity:0.26;fill:#FFF2D1;stroke:#FFFFFF;stroke-width:0.0317;stroke-miterlimit:10;}
	.st27{fill:#FFF1CC;}
	.st28{fill:none;stroke:#FFFFFF;stroke-width:0.0317;stroke-miterlimit:10;}
	.st29{fill:none;stroke:#FFEDBF;stroke-width:0.1152;stroke-miterlimit:10;}
	.st30{fill:none;stroke:#FFEDBF;stroke-width:0.0952;stroke-miterlimit:10;}
	.st31{fill:#EA3628;}
	.st32{fill:#004F6B;}
	.st33{fill:#002E3F;}
	.st34{fill:#E8A700;}
	.st35{fill:none;stroke:#FFFFFF;stroke-width:0.412;}
	.st36{fill:none;stroke:#002E3F;stroke-width:0.1459;}
	.st37{opacity:0.8;fill:none;stroke:#FFFFFF;stroke-width:0.0363;stroke-miterlimit:10;}
	.st38{fill:none;stroke:#FFB700;stroke-width:0.0409;}
	.st39{opacity:0.56;fill:#FFFFFF;}
	.st40{fill:#FFECB6;}
	.st41{fill:#FFFEFD;}
	.st42{fill:#0E3757;stroke:#FFFFFF;stroke-width:0.0244;}
	.st43{opacity:0.8;}
	.st44{fill:none;stroke:#FFFFFF;stroke-width:0.0179;stroke-miterlimit:10;}
	.st45{opacity:0.75;fill:#FFFFFF;}
	.st46{opacity:0.75;fill:none;stroke:#FFFFFF;stroke-width:0.0089;stroke-miterlimit:10;}
	.st47{opacity:0.75;fill:none;stroke:#FFFFFF;stroke-width:0.0071;stroke-miterlimit:10;}
	.st48{fill:none;stroke:#EEF9FF;stroke-width:0.1229;stroke-miterlimit:10;stroke-dasharray:0.7721,0.7721;}
	.st49{fill:#E6F5FF;}
	.st50{fill:none;stroke:#C2E5E1;stroke-width:0.1679;stroke-miterlimit:10;}
	.st51{fill:#FFB700;}
	.st52{fill:#40C5F4;}
	.st53{fill:#D45454;}
	.st54{fill-rule:evenodd;clip-rule:evenodd;fill:#FFFFFF;}
	.st55{fill:none;stroke:#FFFFFF;stroke-width:0.0645;}
	.st56{fill:#303030;stroke:#303030;stroke-width:0.0645;}
	.st57{opacity:0;fill:none;}
	.st58{opacity:0.0028;fill:#606060;}
	.st59{opacity:0.0056;fill:#606060;}
	.st60{opacity:0.0085;fill:#606060;}
	.st61{opacity:0.0113;fill:#606060;}
	.st62{opacity:0.0141;fill:#606060;}
	.st63{opacity:0.0169;fill:#606060;}
	.st64{opacity:0.0197;fill:#606060;}
	.st65{opacity:0.0225;fill:#606060;}
	.st66{opacity:0.0254;fill:#606060;}
	.st67{opacity:0.0282;fill:#606060;}
	.st68{opacity:0.031;fill:#606060;}
	.st69{opacity:0.0338;fill:#606060;}
	.st70{opacity:0.0366;fill:#606060;}
	.st71{opacity:0.0394;fill:#606060;}
	.st72{opacity:0.0423;fill:#606060;}
	.st73{opacity:0.0451;fill:#606060;}
	.st74{opacity:0.0479;fill:#606060;}
	.st75{opacity:0.0507;fill:#606060;}
	.st76{opacity:0.0535;fill:#606060;}
	.st77{opacity:0.0563;fill:#606060;}
	.st78{opacity:0.0592;fill:#606060;}
	.st79{opacity:0.062;fill:#606060;}
	.st80{opacity:0.0648;fill:#606060;}
	.st81{opacity:0.0676;fill:#606060;}
	.st82{opacity:0.0704;fill:#606060;}
	.st83{opacity:0.0732;fill:#606060;}
	.st84{opacity:0.0761;fill:#606060;}
	.st85{opacity:0.0789;fill:#606060;}
	.st86{opacity:0.0817;fill:#606060;}
	.st87{opacity:0.0845;fill:#606060;}
	.st88{opacity:0.0873;fill:#606060;}
	.st89{opacity:0.0901;fill:#606060;}
	.st90{opacity:0.093;fill:#606060;}
	.st91{opacity:0.0958;fill:#606060;}
	.st92{opacity:0.0986;fill:#606060;}
	.st93{opacity:0.1014;fill:#606060;}
	.st94{opacity:0.1042;fill:#606060;}
	.st95{opacity:0.107;fill:#606060;}
	.st96{opacity:0.1099;fill:#606060;}
	.st97{opacity:0.1127;fill:#606060;}
	.st98{opacity:0.1155;fill:#606060;}
	.st99{opacity:0.1183;fill:#606060;}
	.st100{opacity:0.1211;fill:#606060;}
	.st101{opacity:0.1239;fill:#606060;}
	.st102{opacity:0.1268;fill:#606060;}
	.st103{opacity:0.1296;fill:#606060;}
	.st104{opacity:0.1324;fill:#606060;}
	.st105{opacity:0.1352;fill:#606060;}
	.st106{opacity:0.138;fill:#606060;}
	.st107{opacity:0.1408;fill:#606060;}
	.st108{opacity:0.1437;fill:#606060;}
	.st109{opacity:0.1465;fill:#606060;}
	.st110{opacity:0.1493;fill:#606060;}
	.st111{opacity:0.1521;fill:#606060;}
	.st112{opacity:0.1549;fill:#606060;}
	.st113{opacity:0.1577;fill:#606060;}
	.st114{opacity:0.1606;fill:#606060;}
	.st115{opacity:0.1634;fill:#606060;}
	.st116{opacity:0.1662;fill:#606060;}
	.st117{opacity:0.169;fill:#606060;}
	.st118{opacity:0.1718;fill:#606060;}
	.st119{opacity:0.1746;fill:#606060;}
	.st120{opacity:0.1775;fill:#606060;}
	.st121{opacity:0.1803;fill:#606060;}
	.st122{opacity:0.1831;fill:#606060;}
	.st123{opacity:0.1859;fill:#606060;}
	.st124{opacity:0.1887;fill:#606060;}
	.st125{opacity:0.1915;fill:#606060;}
	.st126{opacity:0.1944;fill:#606060;}
	.st127{opacity:0.1972;fill:#606060;}
	.st128{opacity:0.2;fill:#606060;}
	.st129{fill:#EBA01E;}
	.st130{fill:none;stroke:#BECCCC;stroke-width:0.1661;stroke-miterlimit:10;}
	.st131{fill:#B17E4F;}
	.st132{opacity:0.5;fill:#7A492B;}
	.st133{fill:none;stroke:#FFCCBF;stroke-width:0.1676;}
	.st134{fill:#7C7C7C;}
	.st135{fill:#F7F7F7;}
	.st136{fill:#808080;}
	.st137{fill:#EBEBEB;}
	.st138{fill:#7A492B;}
	.st139{opacity:0.8;fill:#7A492B;}
	.st140{fill:#002C3F;}
	.st141{fill:#1D4C5C;}
	.st142{fill:url(#SVGID_1_);}
	.st143{fill:#005980;}
	.st144{fill:#32BAEA;}
	.st145{fill:none;stroke:#FFFFFF;stroke-width:0.0569;}
	.st146{fill:#19242E;}
	.st147{fill:#FFAA00;}
	.st148{clip-path:url(#SVGID_3_);}
	.st149{fill:none;stroke:#FFF700;stroke-width:0.0341;}
	.st150{fill:#FFF700;}
	.st151{fill:#FF8800;}
	.st152{fill:#D67200;}
	.st153{clip-path:url(#SVGID_5_);}
	.st154{clip-path:url(#SVGID_7_);}
	.st155{clip-path:url(#SVGID_9_);}
	.st156{fill:#E37900;}
	.st157{clip-path:url(#SVGID_11_);}
	.st158{clip-path:url(#SVGID_13_);}
	.st159{clip-path:url(#SVGID_15_);}
	.st160{clip-path:url(#SVGID_17_);}
	.st161{fill:#757575;}
	.st162{fill:#FF9900;}
	.st163{fill:#1593A5;}
	.st164{fill:#66898F;}
	.st165{fill:#527394;}
	.st166{fill:#2C3E50;}
	.st167{clip-path:url(#SVGID_19_);fill:#2C3E50;}
	.st168{fill:#46542E;}
	.st169{clip-path:url(#SVGID_23_);fill:#20669C;}
	.st170{fill:#859D4C;}
	.st171{clip-path:url(#SVGID_29_);fill:#20669C;}
	.st172{fill:#FFC800;}
	.st173{opacity:0.2;}
	.st174{opacity:0.85;fill:#FFFFFF;}
	.st175{opacity:0.5;}
	.st176{fill:#939393;}
	.st177{fill:#A5A5A5;}
	.st178{fill:#09444D;}
	.st179{opacity:0.32;}
	.st180{fill:#D71B29;}
	.st181{fill:none;stroke:#BAB9B9;stroke-width:0.2355;}
	.st182{fill:#D74B56;}
	.st183{fill:#3E4551;}
	.st184{fill:#24B3C9;}
	.st185{fill:#474E5D;}
	.st186{clip-path:url(#SVGID_33_);}
	.st187{fill:#FF6C00;}
	.st188{fill:#FFA200;}
	.st189{fill:#FFCA10;}
	.st190{fill:#F93B2A;}
	.st191{fill:#D63123;}
	.st192{fill:#E8EBF0;}
	.st193{fill:#D8DBE1;}
	.st194{fill:#ABB2C1;}
	.st195{fill:#2E3544;}
	.st196{opacity:0.07;fill:#FFFFFF;}
	.st197{fill:#0399AF;}
	.st198{fill:#606776;}
	.st199{fill:#3DCCE2;}
	.st200{fill:#FFFF74;}
	.st201{fill:#00AABC;}
</style>
<g>
	<path class="st0" d="M33.508,13.334L3.443,39.47c-5.81,5.05-3.974,14.496,3.305,17.002l37.667,12.97
		c7.279,2.506,14.541-3.807,13.072-11.363l-7.602-39.106C48.416,11.417,39.318,8.284,33.508,13.334z"/>
	<g>
		<g>
			<rect x="23.45" y="14.543" class="st192" width="39" height="52"/>
			<g>
				<rect x="26.7" y="59.231" class="st185" width="19.5" height="0.813"/>
				<rect x="26.7" y="57.2" class="st185" width="32.5" height="0.813"/>
				<rect x="26.7" y="55.168" class="st185" width="32.5" height="0.813"/>
				<rect x="26.7" y="53.137" class="st185" width="32.5" height="0.813"/>
			</g>
			<g>
				<polygon class="st185" points="29.138,40.645 26.7,40.645 27.919,42.27 				"/>
				<rect x="27.513" y="35.973" class="st185" width="0.813" height="4.672"/>
				<polygon class="st185" points="29.138,35.973 26.7,35.973 27.919,34.348 				"/>
			</g>
			<g>
				<path class="st184" d="M52.061,39.047c0.019-0.244,0.03-0.49,0.03-0.738s-0.01-0.495-0.03-0.738l-1.237-0.133
					c-0.05-0.459-0.139-0.906-0.265-1.338l1.092-0.596c-0.152-0.473-0.341-0.929-0.565-1.364l-1.194,0.351
					c-0.221-0.4-0.475-0.779-0.759-1.133l0.781-0.968c-0.32-0.376-0.669-0.725-1.044-1.044l-0.968,0.781
					c-0.354-0.284-0.733-0.538-1.133-0.759l0.351-1.194c-0.435-0.224-0.891-0.413-1.364-0.565L45.16,30.7
					c-0.432-0.125-0.879-0.214-1.338-0.265l-0.133-1.237c-0.244-0.019-0.49-0.03-0.738-0.03s-0.495,0.01-0.738,0.03l-0.133,1.237
					c-0.459,0.05-0.906,0.139-1.338,0.265l-0.596-1.092c-0.473,0.152-0.929,0.341-1.364,0.565l0.351,1.194
					c-0.4,0.221-0.779,0.475-1.133,0.759l-0.968-0.781c-0.375,0.32-0.725,0.669-1.044,1.044l0.781,0.968
					c-0.284,0.354-0.538,0.733-0.759,1.133l-1.194-0.351c-0.224,0.435-0.413,0.891-0.565,1.364l1.092,0.596
					c-0.125,0.432-0.215,0.879-0.265,1.338l-1.237,0.133c-0.019,0.244-0.03,0.49-0.03,0.738s0.01,0.495,0.03,0.738l1.237,0.133
					c0.05,0.459,0.139,0.906,0.265,1.338l-1.092,0.596c0.152,0.473,0.341,0.929,0.565,1.364l1.194-0.351
					c0.221,0.4,0.475,0.779,0.759,1.133l-0.781,0.968c0.32,0.375,0.669,0.725,1.044,1.044l0.968-0.781
					c0.354,0.284,0.733,0.538,1.133,0.759l-0.351,1.194c0.435,0.224,0.891,0.413,1.364,0.565l0.596-1.092
					c0.432,0.125,0.879,0.214,1.338,0.265l0.133,1.237c0.244,0.019,0.49,0.03,0.738,0.03s0.495-0.01,0.738-0.03l0.133-1.237
					c0.459-0.05,0.906-0.139,1.338-0.265l0.596,1.092c0.473-0.152,0.929-0.341,1.364-0.565l-0.351-1.194
					c0.4-0.221,0.779-0.475,1.133-0.759l0.968,0.781c0.375-0.32,0.725-0.669,1.044-1.044l-0.781-0.968
					c0.284-0.354,0.538-0.733,0.759-1.133l1.194,0.351c0.224-0.435,0.413-0.891,0.565-1.364l-1.092-0.596
					c0.125-0.432,0.215-0.879,0.265-1.338L52.061,39.047z M42.95,43.083c-2.636,0-4.773-2.137-4.773-4.773s2.137-4.773,4.773-4.773
					s4.773,2.137,4.773,4.773S45.587,43.083,42.95,43.083z"/>
				<path class="st185" d="M42.95,32.723c-3.085,0-5.586,2.501-5.586,5.586c0,3.085,2.501,5.586,5.586,5.586
					s5.586-2.501,5.586-5.586C48.536,35.224,46.035,32.723,42.95,32.723z M42.95,43.083c-2.636,0-4.773-2.137-4.773-4.773
					s2.137-4.773,4.773-4.773s4.773,2.137,4.773,4.773S45.587,43.083,42.95,43.083z"/>
			</g>
			<g>
				<polygon class="st185" points="59.2,45.825 56.763,45.825 57.982,47.45 				"/>
				<rect x="57.575" y="30.793" class="st185" width="0.813" height="15.031"/>
				<polygon class="st185" points="59.2,30.793 56.763,30.793 57.982,29.168 				"/>
			</g>
			<rect x="42.95" y="47.45" class="st185" width="16.25" height="0.813"/>
			<rect x="26.7" y="42.27" class="st185" width="16.25" height="0.813"/>
			<rect x="26.7" y="33.536" class="st185" width="16.25" height="0.813"/>
			<rect x="42.95" y="28.356" class="st185" width="16.25" height="0.813"/>
			<g>
				<rect x="26.7" y="22.668" class="st185" width="19.5" height="0.813"/>
				<rect x="26.7" y="20.637" class="st185" width="32.5" height="0.813"/>
				<rect x="26.7" y="17.793" class="st190" width="32.5" height="1.625"/>
			</g>
		</g>
		<g>
			<path class="st185" d="M68.95,24.293H65.7v-2.438c0-0.449,0.364-0.813,0.813-0.813h1.625c0.449,0,0.813,0.364,0.813,0.813V24.293
				z"/>
			<path class="st195" d="M68.95,24.293h-0.813v-3.25l0,0c0.449,0,0.813,0.364,0.813,0.813V24.293z"/>
			<rect x="65.7" y="24.293" class="st192" width="3.25" height="3.25"/>
			<rect x="68.138" y="24.293" class="st193" width="0.813" height="3.25"/>
			<rect x="65.7" y="27.543" class="st184" width="3.25" height="26"/>
			<rect x="68.138" y="27.543" class="st197" width="0.813" height="26"/>
			<polygon class="st192" points="66.513,56.793 65.7,53.543 68.95,53.543 68.138,56.793 			"/>
			<polygon class="st193" points="68.138,56.793 67.732,56.793 68.138,53.543 68.95,53.543 			"/>
			<polygon class="st185" points="67.325,60.043 66.513,56.793 68.138,56.793 			"/>
			<polygon class="st195" points="68.138,56.793 67.325,60.043 67.732,56.793 			"/>
			<path class="st198" d="M66.513,21.45c-0.224,0-0.406,0.182-0.406,0.406v2.438h0.609V21.45H66.513z"/>
			<rect x="66.107" y="24.293" class="st3" width="0.609" height="3.25"/>
			<polygon class="st199" points="66.716,53.543 66.716,27.543 66.107,27.543 66.107,53.543 66.716,53.543 			"/>
			<polygon class="st3" points="67.021,56.793 66.716,53.543 66.107,53.543 66.716,56.793 			"/>
			<polygon class="st198" points="67.325,60.043 67.325,60.043 67.021,56.793 66.716,56.793 			"/>
		</g>
		<g>
			<path class="st194" d="M25.278,33.231c0,0.449-0.364,0.813-0.813,0.813h-2.031c-0.449,0-0.813-0.364-0.813-0.813H25.278z"/>
			<path class="st195" d="M26.091,32.418c0,0.449-0.364,0.813-0.813,0.813h-3.656c-0.449,0-0.813-0.364-0.813-0.813H26.091z"/>
			<path class="st185" d="M26.091,32.418c0-0.449-0.364-0.813-0.813-0.813h-3.656c-0.449,0-0.813,0.364-0.813,0.813H26.091z"/>
			<path class="st195" d="M26.091,30.793c0,0.449-0.364,0.813-0.813,0.813h-3.656c-0.449,0-0.813-0.364-0.813-0.813H26.091z"/>
			<path class="st185" d="M26.091,30.793c0-0.449-0.364-0.813-0.813-0.813h-3.656c-0.449,0-0.813,0.364-0.813,0.813H26.091z"/>
			<path class="st188" d="M26.091,29.168c0,0.449-0.364,0.813-0.813,0.813h-3.656c-0.449,0-0.813-0.364-0.813-0.813
				c0-3.616-3.859-3.235-3.859-8.125c0-3.59,2.91-6.5,6.5-6.5s6.5,2.91,6.5,6.5C29.95,25.954,26.091,25.523,26.091,29.168z"/>
			<path class="st189" d="M21.622,29.575c-0.224,0-0.406-0.182-0.406-0.406c0-3.861-3.859-3.424-3.859-8.125
				c0-3.36,2.734-6.094,6.094-6.094s6.094,2.734,6.094,6.094c0,4.721-3.859,4.233-3.859,8.125c0,0.224-0.182,0.406-0.406,0.406
				H21.622z"/>
			<path class="st200" d="M18.169,21.043c0,4.16,3.589,3.794,3.846,7.719h0.442c-0.178-3.924-2.663-3.559-2.663-7.719
				c0-2.912,1.64-5.281,3.656-5.281C20.538,15.762,18.169,18.131,18.169,21.043z"/>
			<path class="st188" d="M23.45,14.543c-0.275,0-0.546,0.017-0.813,0.05c3.206,0.4,5.688,3.135,5.688,6.45
				c0,4.911-3.859,4.48-3.859,8.125c0,0.449-0.364,0.813-0.813,0.813h1.625c0.449,0,0.813-0.364,0.813-0.813
				c0-3.645,3.859-3.214,3.859-8.125C29.95,17.454,27.04,14.543,23.45,14.543z"/>
		</g>
	</g>
</g>
</svg>
