<?xml version="1.0" encoding="utf-8"?>
<!-- Generator: Adobe Illustrator 21.0.0, SVG Export Plug-In . SVG Version: 6.00 Build 0)  -->
<svg version="1.0" id="Layer_1" xmlns="http://www.w3.org/2000/svg" xmlns:xlink="http://www.w3.org/1999/xlink" x="0px" y="0px"
	 viewBox="0 0 78 70" style="enable-background:new 0 0 78 70;" xml:space="preserve">
<style type="text/css">
	.st0{fill:#FBAC18;}
	.st1{opacity:0.14;}
	.st2{fill:#FB4129;}
	.st3{fill:#FFFFFF;}
	.st4{fill:#D15041;}
	.st5{opacity:0.23;}
	.st6{fill:#12365A;}
	.st7{fill:#BECCCC;}
	.st8{fill:#49C8FF;}
	.st9{fill:#383838;}
	.st10{fill:#353535;}
	.st11{opacity:0.2;fill:#FFFFFF;}
	.st12{fill:#374757;}
	.st13{fill:#303F4D;}
	.st14{fill:#536C85;}
	.st15{fill:#516882;}
	.st16{fill:none;stroke:#81A4B5;stroke-width:0.0841;}
	.st17{fill:#20669C;}
	.st18{fill:none;stroke:#111317;stroke-width:0.4972;stroke-miterlimit:10;}
	.st19{fill:#185D8C;}
	.st20{fill:#ABABAB;}
	.st21{fill:none;stroke:#EEF9FF;stroke-width:0.129;stroke-miterlimit:10;stroke-dasharray:0.8103,0.8103;}
	.st22{fill:none;stroke:#EEF9FF;stroke-width:0.1935;stroke-miterlimit:10;stroke-dasharray:0.5064,0.5064;}
	.st23{fill:none;stroke:#EEF9FF;stroke-width:0.0645;stroke-miterlimit:10;stroke-dasharray:1.0129,1.0129;}
	.st24{fill:#C2E5E1;}
	.st25{fill:#03384D;}
	.st26{opacity:0.26;fill:#FFF2D1;stroke:#FFFFFF;stroke-width:0.0317;stroke-miterlimit:10;}
	.st27{fill:#FFF1CC;}
	.st28{fill:none;stroke:#FFFFFF;stroke-width:0.0317;stroke-miterlimit:10;}
	.st29{fill:none;stroke:#FFEDBF;stroke-width:0.1152;stroke-miterlimit:10;}
	.st30{fill:none;stroke:#FFEDBF;stroke-width:0.0952;stroke-miterlimit:10;}
	.st31{fill:#EA3628;}
	.st32{fill:#004F6B;}
	.st33{fill:#002E3F;}
	.st34{fill:#E8A700;}
	.st35{fill:none;stroke:#FFFFFF;stroke-width:0.412;}
	.st36{fill:none;stroke:#002E3F;stroke-width:0.1459;}
	.st37{opacity:0.8;fill:none;stroke:#FFFFFF;stroke-width:0.0363;stroke-miterlimit:10;}
	.st38{fill:none;stroke:#FFB700;stroke-width:0.0409;}
	.st39{opacity:0.56;fill:#FFFFFF;}
	.st40{fill:#FFECB6;}
	.st41{fill:#FFFEFD;}
	.st42{fill:#0E3757;stroke:#FFFFFF;stroke-width:0.0244;}
	.st43{opacity:0.8;}
	.st44{fill:none;stroke:#FFFFFF;stroke-width:0.0179;stroke-miterlimit:10;}
	.st45{opacity:0.75;fill:#FFFFFF;}
	.st46{opacity:0.75;fill:none;stroke:#FFFFFF;stroke-width:0.0089;stroke-miterlimit:10;}
	.st47{opacity:0.75;fill:none;stroke:#FFFFFF;stroke-width:0.0071;stroke-miterlimit:10;}
	.st48{fill:none;stroke:#EEF9FF;stroke-width:0.1229;stroke-miterlimit:10;stroke-dasharray:0.7721,0.7721;}
	.st49{fill:#E6F5FF;}
	.st50{fill:none;stroke:#C2E5E1;stroke-width:0.1679;stroke-miterlimit:10;}
	.st51{fill:#FFB700;}
	.st52{fill:#40C5F4;}
	.st53{fill:#D45454;}
	.st54{fill-rule:evenodd;clip-rule:evenodd;fill:#FFFFFF;}
	.st55{fill:none;stroke:#FFFFFF;stroke-width:0.0645;}
	.st56{fill:#303030;stroke:#303030;stroke-width:0.0645;}
	.st57{opacity:0;fill:none;}
	.st58{opacity:0.0028;fill:#606060;}
	.st59{opacity:0.0056;fill:#606060;}
	.st60{opacity:0.0085;fill:#606060;}
	.st61{opacity:0.0113;fill:#606060;}
	.st62{opacity:0.0141;fill:#606060;}
	.st63{opacity:0.0169;fill:#606060;}
	.st64{opacity:0.0197;fill:#606060;}
	.st65{opacity:0.0225;fill:#606060;}
	.st66{opacity:0.0254;fill:#606060;}
	.st67{opacity:0.0282;fill:#606060;}
	.st68{opacity:0.031;fill:#606060;}
	.st69{opacity:0.0338;fill:#606060;}
	.st70{opacity:0.0366;fill:#606060;}
	.st71{opacity:0.0394;fill:#606060;}
	.st72{opacity:0.0423;fill:#606060;}
	.st73{opacity:0.0451;fill:#606060;}
	.st74{opacity:0.0479;fill:#606060;}
	.st75{opacity:0.0507;fill:#606060;}
	.st76{opacity:0.0535;fill:#606060;}
	.st77{opacity:0.0563;fill:#606060;}
	.st78{opacity:0.0592;fill:#606060;}
	.st79{opacity:0.062;fill:#606060;}
	.st80{opacity:0.0648;fill:#606060;}
	.st81{opacity:0.0676;fill:#606060;}
	.st82{opacity:0.0704;fill:#606060;}
	.st83{opacity:0.0732;fill:#606060;}
	.st84{opacity:0.0761;fill:#606060;}
	.st85{opacity:0.0789;fill:#606060;}
	.st86{opacity:0.0817;fill:#606060;}
	.st87{opacity:0.0845;fill:#606060;}
	.st88{opacity:0.0873;fill:#606060;}
	.st89{opacity:0.0901;fill:#606060;}
	.st90{opacity:0.093;fill:#606060;}
	.st91{opacity:0.0958;fill:#606060;}
	.st92{opacity:0.0986;fill:#606060;}
	.st93{opacity:0.1014;fill:#606060;}
	.st94{opacity:0.1042;fill:#606060;}
	.st95{opacity:0.107;fill:#606060;}
	.st96{opacity:0.1099;fill:#606060;}
	.st97{opacity:0.1127;fill:#606060;}
	.st98{opacity:0.1155;fill:#606060;}
	.st99{opacity:0.1183;fill:#606060;}
	.st100{opacity:0.1211;fill:#606060;}
	.st101{opacity:0.1239;fill:#606060;}
	.st102{opacity:0.1268;fill:#606060;}
	.st103{opacity:0.1296;fill:#606060;}
	.st104{opacity:0.1324;fill:#606060;}
	.st105{opacity:0.1352;fill:#606060;}
	.st106{opacity:0.138;fill:#606060;}
	.st107{opacity:0.1408;fill:#606060;}
	.st108{opacity:0.1437;fill:#606060;}
	.st109{opacity:0.1465;fill:#606060;}
	.st110{opacity:0.1493;fill:#606060;}
	.st111{opacity:0.1521;fill:#606060;}
	.st112{opacity:0.1549;fill:#606060;}
	.st113{opacity:0.1577;fill:#606060;}
	.st114{opacity:0.1606;fill:#606060;}
	.st115{opacity:0.1634;fill:#606060;}
	.st116{opacity:0.1662;fill:#606060;}
	.st117{opacity:0.169;fill:#606060;}
	.st118{opacity:0.1718;fill:#606060;}
	.st119{opacity:0.1746;fill:#606060;}
	.st120{opacity:0.1775;fill:#606060;}
	.st121{opacity:0.1803;fill:#606060;}
	.st122{opacity:0.1831;fill:#606060;}
	.st123{opacity:0.1859;fill:#606060;}
	.st124{opacity:0.1887;fill:#606060;}
	.st125{opacity:0.1915;fill:#606060;}
	.st126{opacity:0.1944;fill:#606060;}
	.st127{opacity:0.1972;fill:#606060;}
	.st128{opacity:0.2;fill:#606060;}
	.st129{fill:#EBA01E;}
	.st130{fill:none;stroke:#BECCCC;stroke-width:0.1661;stroke-miterlimit:10;}
	.st131{fill:#B17E4F;}
	.st132{opacity:0.5;fill:#7A492B;}
	.st133{fill:none;stroke:#FFCCBF;stroke-width:0.1676;}
	.st134{fill:#7C7C7C;}
	.st135{fill:#F7F7F7;}
	.st136{fill:#808080;}
	.st137{fill:#EBEBEB;}
	.st138{fill:#7A492B;}
	.st139{opacity:0.8;fill:#7A492B;}
	.st140{fill:#002C3F;}
	.st141{fill:#1D4C5C;}
	.st142{fill:url(#SVGID_1_);}
	.st143{fill:#005980;}
	.st144{fill:#32BAEA;}
	.st145{fill:none;stroke:#FFFFFF;stroke-width:0.0569;}
	.st146{fill:#19242E;}
	.st147{fill:#FFAA00;}
	.st148{clip-path:url(#SVGID_3_);}
	.st149{fill:none;stroke:#FFF700;stroke-width:0.0341;}
	.st150{fill:#FFF700;}
	.st151{fill:#FF8800;}
	.st152{fill:#D67200;}
	.st153{clip-path:url(#SVGID_5_);}
	.st154{clip-path:url(#SVGID_7_);}
	.st155{clip-path:url(#SVGID_9_);}
	.st156{fill:#E37900;}
	.st157{clip-path:url(#SVGID_11_);}
	.st158{clip-path:url(#SVGID_13_);}
	.st159{clip-path:url(#SVGID_15_);}
	.st160{clip-path:url(#SVGID_17_);}
	.st161{fill:#757575;}
	.st162{fill:#FF9900;}
	.st163{fill:#1593A5;}
	.st164{fill:#66898F;}
	.st165{fill:#527394;}
	.st166{fill:#2C3E50;}
	.st167{clip-path:url(#SVGID_19_);fill:#2C3E50;}
	.st168{fill:#46542E;}
	.st169{clip-path:url(#SVGID_23_);fill:#20669C;}
	.st170{fill:#859D4C;}
	.st171{clip-path:url(#SVGID_29_);fill:#20669C;}
	.st172{fill:#FFC800;}
	.st173{opacity:0.2;}
	.st174{opacity:0.85;fill:#FFFFFF;}
	.st175{opacity:0.5;}
	.st176{fill:#939393;}
	.st177{fill:#A5A5A5;}
	.st178{fill:#09444D;}
	.st179{opacity:0.32;}
	.st180{fill:#D71B29;}
	.st181{fill:none;stroke:#BAB9B9;stroke-width:0.2355;}
	.st182{fill:#D74B56;}
	.st183{fill:#3E4551;}
	.st184{fill:#24B3C9;}
	.st185{fill:#474E5D;}
	.st186{clip-path:url(#SVGID_33_);}
	.st187{fill:#FF6C00;}
	.st188{fill:#FFA200;}
	.st189{fill:#FFCA10;}
	.st190{fill:#F93B2A;}
	.st191{fill:#D63123;}
	.st192{fill:#E8EBF0;}
	.st193{fill:#D8DBE1;}
	.st194{fill:#ABB2C1;}
	.st195{fill:#2E3544;}
	.st196{opacity:0.07;fill:#FFFFFF;}
	.st197{fill:#0399AF;}
	.st198{fill:#606776;}
	.st199{fill:#3DCCE2;}
	.st200{fill:#FFFF74;}
	.st201{fill:#00AABC;}
</style>
<g>
	<path class="st0" d="M33.508,13.334L3.443,39.47c-5.81,5.05-3.974,14.496,3.305,17.002l37.667,12.97
		c7.279,2.506,14.541-3.807,13.072-11.363l-7.602-39.106C48.416,11.417,39.318,8.284,33.508,13.334z"/>
	<g>
		<g>
			<path class="st183" d="M69.278,62.543H17.622c-0.861,0-2.672-0.698-2.672-1.559v-2.004h57v2.004
				C71.95,61.846,70.139,62.543,69.278,62.543z"/>
			<path class="st183" d="M71.95,60.985c0,0.861-1.811,1.559-2.672,1.559H17.622c-0.861,0-2.672-0.698-2.672-1.559H71.95z"/>
			<path class="st184" d="M47.347,60.317h-7.793c-0.738,0-1.336-0.598-1.336-1.336l0,0h10.465l0,0
				C48.683,59.719,48.085,60.317,47.347,60.317z"/>
			<path class="st185" d="M65.716,58.981H21.185V30.036c0-0.984,0.797-1.781,1.781-1.781h40.969c0.984,0,1.781,0.797,1.781,1.781
				V58.981z"/>
			<rect x="22.855" y="29.924" class="st184" width="41.191" height="27.387"/>
		</g>
		<g>
			<g>
				<defs>
					<rect id="SVGID_32_" x="22.855" y="29.924" width="41.191" height="27.387"/>
				</defs>
				<clipPath id="SVGID_1_">
					<use xlink:href="#SVGID_32_"  style="overflow:visible;"/>
				</clipPath>
				<g style="clip-path:url(#SVGID_1_);">
					<path class="st187" d="M38.004,53.639c1.409-0.74,2.329-8.713,2.329-10.689c0.989,0,1.876,0,2.75,0c1.119,0,2.218,0,3.484,0
						c0,2.056,0.914,9.899,2.316,10.688L38.004,53.639z"/>
					<circle class="st188" cx="36.771" cy="53.192" r="1.781"/>
					<circle class="st188" cx="39.22" cy="55.196" r="1.781"/>
					<circle class="st188" cx="43.228" cy="55.196" r="3.563"/>
					<circle class="st187" cx="47.458" cy="54.973" r="1.781"/>
					<circle class="st187" cx="51.021" cy="53.192" r="2.672"/>
					<circle class="st187" cx="55.919" cy="51.856" r="2.672"/>
					<circle class="st187" cx="60.372" cy="49.407" r="3.563"/>
					<circle class="st187" cx="63.935" cy="46.735" r="1.781"/>
					<circle class="st187" cx="63.935" cy="50.297" r="1.781"/>
					<circle class="st188" cx="46.567" cy="56.977" r="2.672"/>
					<circle class="st188" cx="22.743" cy="46.735" r="3.563"/>
					<circle class="st188" cx="29.2" cy="47.848" r="3.563"/>
					<circle class="st188" cx="33.208" cy="51.411" r="3.563"/>
					<path class="st188" d="M39.888,53.639c1.258-1.637,1.781-9.242,1.781-10.689h3.563c-0.001,2.055,0.975,11.794,4.002,12.226
						L39.888,53.639z"/>
					<circle class="st188" cx="50.13" cy="55.196" r="1.781"/>
					<circle class="st188" cx="53.915" cy="54.973" r="2.672"/>
					<circle class="st188" cx="58.814" cy="53.86" r="3.563"/>
					<circle class="st188" cx="61.931" cy="54.862" r="3.563"/>
					<circle class="st189" cx="25.749" cy="51.633" r="3.563"/>
					<circle class="st189" cx="25.192" cy="55.752" r="3.563"/>
					<circle class="st189" cx="30.091" cy="52.524" r="3.563"/>
					<circle class="st189" cx="33.431" cy="54.751" r="2.672"/>
					<circle class="st189" cx="36.103" cy="56.643" r="2.672"/>
					<circle class="st189" cx="34.544" cy="58.536" r="3.563"/>
					<circle class="st189" cx="30.091" cy="57.2" r="3.563"/>
					<circle class="st189" cx="40.11" cy="58.981" r="2.672"/>
					<circle class="st189" cx="44.341" cy="58.536" r="3.563"/>
					<circle class="st189" cx="49.017" cy="59.872" r="2.672"/>
					<circle class="st189" cx="49.017" cy="57.645" r="1.781"/>
					<circle class="st189" cx="52.802" cy="57.645" r="2.672"/>
					<circle class="st189" cx="55.696" cy="55.864" r="2.672"/>
					<circle class="st189" cx="58.591" cy="55.864" r="1.781"/>
					<circle class="st189" cx="61.151" cy="57.311" r="1.781"/>
				</g>
			</g>
		</g>
		<g>
			<polygon class="st185" points="48.126,42.95 38.774,42.95 39.665,41.168 47.235,41.168 			"/>
			<path class="st190" d="M34.57,28.906c-3.663,4.05-4.924,10.106-2.405,15.602c0.839-2.505,2.355-4.714,4.329-6.398
				C35.471,35.335,34.711,32.216,34.57,28.906z"/>
			<path class="st190" d="M52.331,28.906c-0.141,3.309-0.901,6.429-1.925,9.204c1.975,1.684,3.49,3.892,4.329,6.398
				C57.255,39.012,55.994,32.956,52.331,28.906z"/>
			<path class="st191" d="M54.663,32.402c-0.602-1.269-1.386-2.45-2.332-3.496c-0.141,3.309-0.901,6.429-1.925,9.204
				c0.961,0.819,1.812,1.764,2.531,2.806C53.847,38.321,54.515,35.444,54.663,32.402z"/>
			<path class="st192" d="M37.777,41.168h11.346c1.753-3.721,3.233-8.347,3.233-13.359c0-12.297-8.906-22.266-8.906-22.266
				s-8.906,9.969-8.906,22.266C34.544,32.822,36.024,37.447,37.777,41.168z"/>
			<path class="st193" d="M43.45,5.543c0,0,6.68,9.969,6.68,22.266c0,5.013-1.11,9.638-2.425,13.359h1.418
				c1.753-3.721,3.233-8.347,3.233-13.359C52.357,15.512,43.45,5.543,43.45,5.543z"/>
			<path class="st190" d="M44.341,29.813c0,0.492-0.891,14.695-0.891,14.695S42.56,30.305,42.56,29.813
				c0-0.492,0.399-0.891,0.891-0.891S44.341,29.321,44.341,29.813z"/>
			<path class="st190" d="M43.45,13.002c1.594,0,3.126-0.264,4.559-0.743c-2.261-4.143-4.559-6.716-4.559-6.716
				s-2.298,2.573-4.559,6.716C40.324,12.739,41.856,13.002,43.45,13.002z"/>
			<path class="st191" d="M48.009,12.259C48.009,12.259,48.009,12.259,48.009,12.259c-2.262-4.143-4.559-6.716-4.559-6.716
				s1.806,2.697,3.54,7.014C47.335,12.47,47.675,12.371,48.009,12.259z"/>
			<circle class="st185" cx="43.45" cy="20.907" r="4.453"/>
			<circle class="st189" cx="43.45" cy="20.907" r="3.563"/>
			<path class="st188" d="M40.556,21.575c0-1.968,1.595-3.563,3.563-3.563c0.813,0,1.561,0.276,2.16,0.734
				c-0.651-0.851-1.674-1.402-2.828-1.402c-1.968,0-3.563,1.595-3.563,3.563c0,1.154,0.551,2.177,1.402,2.828
				C40.831,23.135,40.556,22.388,40.556,21.575z"/>
		</g>
	</g>
</g>
</svg>
